<svg width="200" height="157" viewBox="0 0 200 157" fill="none" xmlns="http://www.w3.org/2000/svg">
<path fill-rule="evenodd" clip-rule="evenodd" d="M49.9625 86.8663C51.1012 95.4053 52.2395 103.944 53.3782 112.483L54.2975 119.379C54.4136 120.249 54.304 121.965 54.7462 122.744C54.9023 123.019 55.3128 123.15 55.6146 123.311C56.6535 123.869 57.6925 124.427 58.7313 124.985C67.5194 129.703 76.3074 134.421 85.0949 139.139C93.5288 143.667 101.963 148.195 110.396 152.723C111.269 153.192 112.681 154.414 113.623 154.092C114.519 153.786 115.434 153.031 116.247 152.555C117.808 151.64 119.368 150.725 120.929 149.811C130.374 144.276 139.818 138.741 149.262 133.206C153.159 130.922 157.055 128.639 160.952 126.355C162.018 125.731 163.084 125.106 164.15 124.481C164.708 124.154 164.78 124.166 165 123.611C165.821 121.537 166.201 119.162 166.781 117.01C167.421 114.639 168.061 112.268 168.701 109.897C168.986 108.839 168.852 108.703 168.387 107.681C167.466 105.66 166.545 103.639 165.624 101.617C163.58 97.131 161.537 92.6446 159.493 88.1582C158.666 86.344 156.676 85.0674 155.242 83.733L132.989 63.0144C132.423 62.488 131.858 61.9619 131.293 61.4355C131.2 64.5986 130.575 67.9988 131.492 71.0544C132.996 76.0688 134.5 81.0832 136.005 86.0976C136.732 88.5215 137.459 90.9451 138.186 93.3687C138.321 93.819 139.143 95.6047 138.924 96.0008C138.802 96.2203 137.763 96.4424 137.538 96.5278C136.571 96.8956 135.605 97.2634 134.638 97.6312C131.945 98.6559 129.251 99.6805 126.558 100.705C124.136 101.627 121.713 102.548 119.291 103.47C118.469 103.782 117.505 104.361 116.637 104.313C115.861 104.27 114.979 103.885 114.228 103.692C112.908 103.352 111.587 103.012 110.267 102.672C107.673 102.004 105.08 101.336 102.486 100.668C99.5684 99.9161 97.1042 97.7087 94.6089 96.0749C90.3197 93.2665 86.0306 90.458 81.7416 87.6499C80.7597 87.0069 80.7561 86.6401 80.3648 85.4662C79.4855 82.8281 78.606 80.19 77.7267 77.5519C77.2572 76.1434 76.6797 74.7289 76.3251 73.2868C75.7402 70.9068 75.3933 68.4432 74.93 66.0368C74.7904 65.3109 74.6505 64.5846 74.5109 63.8587C72.7147 64.5875 70.9184 65.3166 69.122 66.0457C68.8617 66.1513 67.593 66.4663 67.4802 66.7251C67.4088 66.8888 67.7861 67.6313 67.8401 67.7908C69.3295 72.2021 70.8189 76.6132 72.3085 81.0242C72.777 82.4118 73.2453 83.7993 73.7139 85.1869C72.5945 83.4276 71.4748 81.6681 70.3551 79.9088C69.4756 82.8677 68.5958 85.8268 67.7161 88.7856C65.637 86.3865 63.5577 83.9874 61.4783 81.5882C60.7586 83.9874 60.0389 86.3865 59.3191 88.7856C57.08 85.8268 54.8409 82.8677 52.6016 79.9088C52.3355 81.4529 52.0692 82.997 51.8029 84.5411C51.7225 85.0072 51.7386 86.3443 51.4284 86.7132C51.1729 87.017 50.4373 86.8663 49.9625 86.8663Z" fill="#F27A00"/>
<path fill-rule="evenodd" clip-rule="evenodd" d="M191.735 105.324C191.609 109.344 191.697 114.561 189.497 118.096C189.142 118.666 187.939 120.443 187.805 118.88C187.673 117.345 188.051 115.826 187.677 114.273C187.477 113.443 186.804 111.629 185.653 112.379C185.067 112.761 184.913 113.705 184.683 114.301C184.344 115.183 183.964 116.051 183.607 116.926C182.359 119.98 181.067 123.625 178.293 125.646C178.656 123.012 179.646 120.2 178.981 117.538C178.754 116.631 178.067 114.974 176.885 115.505C175.733 116.023 174.987 118.335 174.443 119.364C172.795 122.484 171.109 125.546 169.253 128.55C168.32 130.061 167.311 131.442 166.09 132.734C165.326 133.543 164.374 134.909 163.171 135.03C163.171 132.726 163.929 130.5 164.621 128.33C165.365 125.997 166.044 123.645 166.775 121.307C167.409 119.28 167.929 117.268 168.351 115.189C168.526 114.329 168.664 113.439 169.397 112.883C170.056 112.384 171.097 112.147 171.831 111.78C173.76 110.816 175.744 109.776 177.536 108.579C178.272 108.087 178.905 107.451 179.675 107.01C180.553 106.508 181.373 106.085 182.185 105.472C185.689 102.829 188.848 99.5777 190.976 95.7075C191.322 97.2623 191.78 98.7817 191.83 100.385C191.882 102.028 191.787 103.682 191.735 105.324ZM162.896 123.8C162.335 122.853 161.481 123.241 160.729 123.697C159.562 124.405 158.391 125.108 157.218 125.807C154.83 127.23 152.486 128.727 150.153 130.237C145.404 133.311 140.489 135.827 135.483 138.429C130.644 140.944 125.996 143.936 121.462 146.961C120.372 147.688 119.29 148.432 118.244 149.221C117.315 149.92 116.573 150.903 115.595 151.526C114.577 152.175 113.877 151.648 112.903 151.17C111.685 150.572 110.416 150.07 109.171 149.531C104.148 147.353 99.1098 145.092 94.223 142.62C89.3657 140.163 84.7635 137.332 80.1094 134.521C77.8928 133.182 75.7142 131.758 73.5279 130.37C71.2012 128.893 68.7922 127.786 66.3516 126.53C65.2718 125.974 64.3152 125.22 63.2061 124.715C62.0401 124.184 60.8084 123.803 59.7643 123.037C59.2962 122.693 58.9013 122.283 58.3663 122.04C57.9271 121.84 57.4285 121.807 56.9948 121.595C56.1124 121.164 55.8597 120.289 55.6889 119.38C54.5899 113.541 54.0057 107.541 53.3687 101.637C53.0108 98.317 52.6113 95.01 52.1166 91.7076C51.8935 90.2187 52.3421 89.0652 52.5777 87.6169C52.8527 85.9253 52.9613 84.1981 53.1456 82.495C54.015 84.1058 54.7669 85.7962 55.8732 87.2661C56.6886 88.3493 58.0816 89.8855 59.5832 89.8493C61.9171 89.7929 61.8103 85.7899 61.9043 84.201C62.9674 85.1499 63.2898 86.6956 64.1722 87.7978C64.9779 88.804 66.0743 90.0525 67.3115 90.503C69.9165 91.4519 69.6658 86.6164 69.5225 85.2451C69.4506 84.5573 69.0621 83.469 69.9836 83.7826C70.8322 84.0715 71.658 85.2689 72.3713 85.818C73.6042 86.7676 74.9565 87.5567 76.2214 88.4631C77.7906 89.5878 79.4839 90.4006 81.0839 91.448C82.0846 92.1033 83.1762 92.2503 84.2671 92.7321C85.8654 93.4381 87.2773 94.4904 88.7986 95.3368C91.8112 97.0121 95.1531 98.5144 98.4483 99.5245C99.5145 99.8512 100.935 100.773 101.744 99.8258C102.242 99.2433 102.569 98.3535 102.992 97.7004C103.527 96.8737 104.095 96.0688 104.684 95.2802C106.781 92.4778 109.107 89.8315 111.691 87.4679C114.697 84.7183 117.983 82.2438 121.499 80.1829C123.01 79.2974 129.317 75.3285 130.703 78.1219C129.564 78.0508 128.577 78.4676 127.602 78.9894C127.365 79.1168 126.138 79.9925 126.425 79.2207C126.069 79.2873 125.757 79.7518 125.487 79.9584C125.021 80.3154 124.314 80.7275 123.774 81.0231C123.24 81.3151 122.581 81.3866 122.095 81.7407C121.917 81.87 121.81 82.0797 121.64 82.2196L121.155 82.2234C121.082 82.4923 121.009 82.761 120.937 83.03C120.662 82.1502 120.271 83.2944 119.812 83.666C119.536 83.8894 119.1 84.1194 118.775 84.2636C118.533 84.3713 118.495 84.1209 118.26 84.3114C118.051 84.4805 117.917 84.8531 117.692 85.0652C117.416 85.3248 117.063 85.5265 116.755 85.7482C116.165 86.1728 115.541 86.5063 114.944 86.9089C114.14 87.4506 113.719 88.3822 112.939 88.9486C112.569 89.2169 111.995 89.2483 111.795 89.4201C111.293 89.8514 111.458 90.505 110.523 90.5337C110.608 90.67 110.659 90.8178 110.676 90.9773C110.454 90.939 110.255 90.8466 110.082 90.7C110.121 91.6333 109.203 91.9665 108.653 92.5411C108.336 92.8722 107.941 93.3378 107.717 93.7363C107.68 93.803 107.609 94.3349 107.594 94.3421C107.509 94.3829 106.992 93.9287 107.041 93.9667C106.896 94.8289 106.062 95.6441 105.697 96.4423C105.504 96.8629 105.309 97.539 104.929 97.8348C104.826 97.9151 104.509 97.8312 104.247 98.1107C104.054 98.3156 103.832 98.6944 103.754 98.9662C103.702 99.1478 103.765 99.6176 103.69 99.7265C103.552 99.9256 103.339 99.7255 103.124 99.8728C102.727 100.145 102.717 100.57 102.135 100.626C102.536 101.599 104.955 101.9 105.835 102.176C108.321 102.959 110.93 103.741 113.255 104.939C113.856 105.249 114.425 105.505 114.531 106.219C114.68 107.213 114.173 108.534 114.077 109.538C113.815 112.249 113.761 115.039 113.816 117.762C113.868 120.34 113.951 122.943 114.071 125.519C114.183 127.906 114.664 130.247 114.924 132.618C114.995 133.269 114.948 136.204 116.067 136.056C117.001 135.932 116.411 133.928 116.394 133.353C116.354 132.082 116.622 130.783 116.611 129.5C116.606 128.883 116.875 128.352 116.901 127.762C116.927 127.179 116.637 126.718 116.724 126.113C116.807 125.533 118.522 122.196 116.875 122.587C116.972 122.11 117.056 121.629 117.184 121.159C117.36 121.317 117.502 121.502 117.609 121.714C117.755 120.689 117.706 119.666 117.797 118.64C117.838 118.176 118.026 117.667 117.962 117.198C117.974 117.004 117.95 116.814 117.888 116.627C117.787 116.52 117.662 116.464 117.513 116.458C117.434 116.202 117.414 116.131 117.553 115.879C117.613 115.709 117.731 115.602 117.909 115.56C118.246 115.52 118.285 115.326 118.024 114.978C118.16 114.291 118.178 113.857 118.08 113.171C117.997 112.595 118.301 111.48 117.991 110.967C117.63 110.367 117.451 110.949 117.384 110.118C117.369 109.942 117.358 109.575 117.429 109.4C117.506 109.209 117.739 109.287 117.769 109.219C117.971 108.758 117.984 107.848 117.269 107.927C117.297 107.597 117.325 107.267 117.353 106.938C117.87 107.533 117.689 107.029 117.982 106.698C118.377 106.252 118.763 106.176 119.328 105.999C120.832 105.53 122.282 104.824 123.752 104.251C126.865 103.038 130.036 101.955 133.058 100.521C139.414 97.5049 145.644 94.2318 152.039 91.2955C151.582 90.4476 151.866 90.4063 152.2 89.6103C152.646 89.9198 152.552 89.7039 152.869 89.6849C152.84 89.4193 152.923 89.3392 153.117 89.4445C153.271 89.4918 153.429 89.5086 153.591 89.4947C153.987 89.5626 154.311 89.7804 154.67 89.8632C154.789 89.9503 154.918 90.0155 155.06 90.0594C155.187 90.0304 155.295 89.9675 155.385 89.8706C155.968 89.9786 156.164 90.4174 156.19 91.0527C156.194 91.1633 155.856 91.2765 155.953 91.425C156.122 91.6846 156.577 91.6227 156.838 91.6558C156.781 91.9255 156.723 92.1949 156.667 92.4643C157.81 91.9368 157.512 93.5881 157.858 94.1305C157.955 94.2819 158.17 94.161 158.282 94.3364C158.428 94.5652 158.384 94.8894 158.509 95.1173C158.79 95.6329 159.072 95.5702 159.352 96.1607C160.818 99.2433 162.768 102.115 164.174 105.264C164.844 106.763 165.448 108.287 166.148 109.773C166.791 111.14 167.159 112.302 166.7 113.795C165.636 117.259 164.499 120.786 163.105 124.131C163.035 124.021 162.965 123.91 162.896 123.8ZM88.6923 149.653C88.5925 149.823 88.4927 149.993 88.3929 150.163C88.1712 148.888 88.7619 149.479 88.6923 149.653ZM84.0001 147.265C83.6803 147.17 83.8185 146.647 83.8288 146.424C84.031 146.676 84.2294 146.933 84.3978 147.21C84.2652 147.229 84.1325 147.247 84.0001 147.265ZM71.14 142.364C71.4759 142.175 71.7175 142.04 72.0982 141.826C71.7113 142.581 71.7113 142.581 71.14 142.364ZM50.9084 75.9228C50.3952 77.1824 51.9599 84.9594 50.5032 85.2132C50.2942 84.5306 50.2681 82.6512 49.4032 82.4268C48.3301 82.1483 48.4359 84.0832 48.2893 84.6815C46.0862 83.1487 45.1076 80.1887 44.0551 77.8428C42.7135 74.8528 41.6578 71.7428 40.6497 68.6273C39.7877 65.9635 39.0749 63.2528 38.2038 60.5933C37.6566 58.9231 37.0666 57.2487 36.6986 55.5271C36.6187 55.1531 36.3042 54.2047 36.5715 53.8492C36.9599 53.3321 38.3581 53.9242 38.8086 54.06C41.7315 54.9396 44.7635 55.3181 47.7665 55.8292C51.103 56.3965 54.432 56.9831 57.7886 57.4231C58.6274 57.533 59.4666 57.6371 60.3063 57.7384C60.8509 57.8041 61.6752 57.7384 62.1925 57.9826C63.2395 58.4766 63.4623 60.3671 63.8512 61.3479C65.302 65.007 67.0094 68.5505 68.537 72.1766C69.9131 75.443 70.9562 78.9181 72.9343 81.8923C71.4591 81.2383 69.5895 77.7807 67.941 79.7736C67.2323 80.6306 67.4111 81.7596 67.4677 82.7853C67.5497 84.2679 67.5754 85.7616 67.5754 87.2467C65.9622 86.8276 64.8783 84.9963 64.0314 83.6991C62.8745 81.9273 62.1459 80.2578 61.6337 78.2267C61.4118 77.3472 60.8235 77.3253 60.3008 76.799C59.9649 76.4607 59.796 76.0049 59.3142 76.4969C58.7087 77.1154 59.1115 78.8282 59.2161 79.5584C59.4644 81.2961 60.2789 83.9704 59.4872 85.6033C58.4186 87.8069 55.5553 82.2623 55.2199 81.4614C55.0493 81.0538 52.0029 73.2363 50.9084 75.9228ZM48.908 38.1581C49.0884 38.1857 49.2686 38.2133 49.449 38.2409C49.3036 38.3693 49.0011 38.8193 48.754 38.7003C48.8053 38.5197 48.8567 38.339 48.908 38.1581ZM58.4637 36.1076C58.4074 36.1697 58.3505 36.2316 58.2939 36.2938C58.0353 35.9704 58.1269 35.4989 58.1269 35.1249C58.4688 35.3315 58.5523 35.7446 58.4637 36.1076ZM59.236 39.6957V40.7528C58.5196 40.4423 58.5055 40.2821 59.236 39.6957ZM60.1059 41.0397C59.6041 40.902 59.5441 40.7909 59.6146 40.0196C59.8226 40.4517 59.9596 40.7365 60.1059 41.0397ZM62.995 48.8681C62.7846 49.4093 61.555 48.1196 61.6001 47.7335C61.6431 47.3653 61.8319 47.2554 62.0924 47.4922C62.1786 47.5706 62.0507 47.854 62.1056 47.9523C62.304 48.3084 62.704 48.5996 62.995 48.8681ZM63.0087 52.129C62.7006 52.8981 62.1514 51.6868 62.9564 51.6537C63.0091 51.8085 63.0266 51.9668 63.0087 52.129ZM62.411 50.9162C62.2918 50.7572 62.1759 50.5959 62.0634 50.4318C62.478 50.5156 62.8071 51.1197 63.2445 50.7166C63.1927 51.3313 62.756 51.3483 62.411 50.9162ZM35.602 40.9253C34.9352 40.1976 39.2827 39.6869 39.8072 39.5619C43.6131 38.6543 47.2066 37.341 50.7652 35.7295C52.4628 34.9608 54.1518 34.1828 55.8096 33.3306C56.5255 32.9628 57.5067 32.6509 58.1046 32.0987C58.5314 31.7045 58.5144 31.4063 59.069 31.1714C59.54 30.9725 59.5635 31.1604 59.7792 30.8005C59.9087 30.5846 60.0553 29.7933 59.9795 29.5592C59.7729 28.9203 59.4675 29.4383 59.0388 28.998C58.73 28.6806 58.8049 27.7781 58.8891 27.4043C58.9985 27.5823 59.0614 27.7757 59.0782 27.9839C59.5434 27.7546 59.3557 26.9669 59.8646 26.8378C60.4008 26.7021 60.3454 27.1197 60.4852 27.5468C60.8905 26.9518 60.5656 26.4444 60.3463 25.8633C61.4612 25.6546 62.6591 25.4523 63.7641 25.8233C64.5633 26.0912 65.2473 26.7503 66.0911 26.8777C66.9173 27.0022 67.0761 26.6104 67.6853 26.2129C68.1797 25.8902 68.6044 26.2702 68.8589 26.0265C68.702 26.8494 67.353 26.7368 67.519 27.7651C67.5939 28.2279 68.161 28.6437 68.4192 29.0038C68.7433 29.4558 69.0017 29.9555 69.2224 30.4648C70.081 32.446 70.4481 34.7451 70.8085 36.8638C71.6976 42.0934 71.8101 47.4262 72.6464 52.6726C73.0449 55.1716 73.4444 57.6719 73.6514 60.1953C73.7033 60.8263 74.0886 62.2574 73.7733 62.8644C73.5068 63.3768 72.9137 63.3782 72.3931 63.5023C71.3744 63.7444 70.4179 64.0733 69.4407 64.4377C68.5648 64.7642 68.3102 64.9646 67.7479 64.1404C67.204 63.343 66.9351 62.3925 66.5459 61.5182C66.0503 60.4043 65.4514 59.3295 64.8766 58.2549C66.0059 58.2549 66.6558 57.6453 66.6258 56.4978C66.5932 55.2267 65.5479 54.9252 65.117 53.8806C64.6979 54.4249 64.6626 54.4403 64.3639 53.9235C64.0223 53.3326 63.7917 52.2513 63.5828 51.581C63.7322 51.7406 63.8817 51.9001 64.0312 52.0594C64.4081 51.5407 63.8176 50.7231 63.6202 50.2346C63.3155 49.4803 63.2618 48.6649 62.9727 47.9127C62.815 47.5023 62.4499 47.1791 62.3604 46.7508C62.3007 46.4642 62.5401 46.1914 62.4832 45.9004C62.3844 45.3937 61.8113 44.85 61.633 44.3347C61.3588 43.542 61.061 42.8441 60.7208 42.0718C60.2605 41.0265 60.3675 39.9296 60.2832 38.8172C60.1959 37.6637 59.8265 36.5601 59.6959 35.4116C59.6057 34.6182 59.8881 33.6192 59.2878 32.9837C59.2176 34.04 59.5203 34.0237 58.5278 34.2137C57.3978 34.4299 56.5783 35.2717 55.5099 35.5229C55.2897 35.5747 55.1292 34.6127 55.2151 35.925C54.7026 35.5467 53.6089 36.0164 54.017 36.241C53.7077 36.5718 53.0986 36.343 52.9969 36.8386C51.9458 35.8168 50.2604 39.2948 49.0088 37.4806C48.8022 38.7102 47.9119 39.4371 46.7167 39.5998C46.1157 39.6813 45.7452 39.8817 45.2119 40.0618C45.1037 40.0981 45.0639 40.2538 44.9358 40.2958C44.74 40.3596 44.4526 40.1669 44.3115 40.2043C44.0244 40.2806 43.705 40.6585 43.3041 40.7336C42.8445 40.8197 42.343 40.7801 41.8829 40.7269C41.3076 40.6602 41.0545 40.592 40.4912 40.7816C39.9845 40.9522 39.4418 41.4298 38.9715 40.9097C38.2329 42.1877 36.4717 41.8753 35.602 40.9253ZM69.7521 25.503C69.1931 25.436 69.5813 24.9552 69.8402 24.8108C70.5436 24.4188 70.3557 25.5754 69.7521 25.503ZM38.7986 30.0891C42.0796 25.3557 47.6917 22.1034 52.6295 19.367C55.3266 17.8723 58.0796 16.4235 60.9116 15.2001C62.3196 14.5922 63.744 14.0078 65.1818 13.4737C65.9495 13.1885 66.7266 12.9291 67.5041 12.671C67.7191 12.5997 68.1102 12.3809 68.3352 12.4023C68.2963 12.3984 68.8944 12.5611 68.7769 12.6122C69.1622 12.4445 69.3455 12.0071 69.7984 11.8323C70.3075 11.6355 70.956 11.5542 71.5013 11.5364C71.9838 11.5206 72.4015 11.72 72.8612 11.7356C73.1632 11.7456 73.4199 11.6022 73.7157 11.5811C73.8671 11.5705 73.8537 11.797 73.9448 11.8102C73.9844 11.8159 74.3875 11.6646 74.3913 11.6672C74.5381 11.7615 74.6682 12.1295 74.8008 12.2732C75.1814 12.6854 75.7399 12.9726 76.2473 13.1894C76.8648 13.4533 78.3712 13.7187 77.6731 14.6951C78.169 14.6239 78.3998 15.072 77.7789 15.1855C77.4425 15.2472 77.2988 14.9391 77.0491 14.729C76.4721 14.2443 75.0715 13.5543 74.2404 13.5855C73.7728 13.603 73.4115 13.9579 72.9804 14.0867C72.556 14.2134 72.3458 14.0169 71.9735 14.0481C71.5383 14.0843 71.2581 14.4526 70.8432 14.5181C70.4548 14.5795 70.2384 14.3146 69.8913 14.3331C69.4786 14.3549 69.0789 14.7134 68.685 14.8338C68.0583 15.0253 67.5982 15.1558 66.9864 15.4732C65.8008 16.0885 64.4767 16.3222 63.2548 16.852C62.2779 17.2754 61.1702 17.4983 60.2662 17.9666C59.261 18.487 58.2512 19.0054 57.2668 19.5709C56.5557 19.9795 55.11 20.12 54.326 20.0162C54.3147 21.46 53.6041 20.4478 52.8879 21.0802C53.0573 21.2296 53.2497 21.3395 53.4644 21.4098C52.6883 21.7198 51.971 22.1056 51.2191 22.4618C50.442 22.8303 49.6129 22.9114 49.1023 23.6084C48.6321 24.2506 48.7914 23.9193 48.0897 24.1722C47.7677 24.2883 47.4877 24.6424 47.2557 24.8802C46.857 25.289 46.7687 25.9079 46.541 25.0678C46.4746 25.1702 46.2131 25.8225 46.1622 25.8391C45.877 25.5363 45.8359 25.8952 45.6764 26.0236C45.7604 26.3026 45.6404 26.4854 45.3165 26.572C45.1527 26.6939 44.9866 26.8134 44.8189 26.9302C44.2105 27.3522 43.4361 27.7142 43.0076 28.3431C42.6916 28.1566 42.5746 27.8349 42.767 27.5065C42.1631 28.0631 41.4426 28.6348 41.2793 29.4915C41.2042 29.4191 41.1166 29.3668 41.0173 29.3346C40.7721 29.5002 41.0914 29.9934 41.2469 30.1045C41.9249 29.8411 41.0775 29.9366 41.5331 29.979C41.6629 29.991 41.7963 30.0882 41.9395 30.0899C42.3596 30.0954 42.7543 30.0752 43.1707 30.0112C44.0891 29.8696 44.9917 29.606 45.8808 29.3416C46.8491 29.0537 47.8176 28.7663 48.7645 28.4131C49.5443 28.1223 50.311 27.7982 51.0775 27.4753C51.3837 27.3462 51.6896 27.2155 51.9962 27.0874C52.5784 26.8441 52.8855 26.4444 52.8042 27.1291C53.268 27.0521 53.6698 26.3966 54.0258 26.1291C54.5268 25.7532 55.0901 25.4727 55.6836 25.2808C55.924 25.2031 56.1006 25.1042 56.3492 25.1035C56.471 25.1033 56.544 25.4468 56.6207 25.4281C57.1533 25.299 56.9105 25.0039 57.15 24.5788C57.6737 23.6496 59.0844 23.1357 59.9507 22.6079C60.5006 22.2728 60.8909 21.822 61.3986 21.4508C61.6361 21.2774 61.8086 21.2006 62.0574 21.1272C62.2479 21.0708 62.4816 21.5084 62.6051 21.0687C62.162 20.8875 61.7966 20.6642 61.3703 20.532C61.0687 20.4382 61.4305 20.1174 60.9526 20.3084C60.7607 20.3851 60.6947 20.7565 60.6242 20.912C60.0904 20.4353 58.5895 20.9293 57.9561 21.1289C57.9124 21.1426 57.7169 21.0394 57.6248 21.0456C57.2591 21.0701 57.0046 21.5622 56.764 21.7742C56.1241 22.3378 55.43 22.5734 54.6422 22.8951C54.8519 21.7495 56.3928 21.2803 57.2923 20.8415C58.607 20.1999 59.831 19.3811 61.2705 19.0361C62.2292 18.806 63.4995 18.6211 63.9136 19.7357C64.1614 20.4039 64.1926 22.0638 63.3541 22.3721C63.2656 22.0602 63.5492 21.7937 63.6346 21.5231C62.7999 21.8417 62.6625 22.8443 62.0286 23.3675C61.6723 23.6614 61.5449 23.7557 61.3727 24.0397C61.2016 24.3219 61.1196 24.5851 60.7187 24.8852C60.0635 23.4935 60.1743 25.3998 59.842 25.639C59.9757 25.5428 59.3006 25.8237 59.3812 25.794C59.35 25.8055 59.0559 25.329 58.8651 25.3391C58.518 25.3573 58.5847 25.7395 58.4174 25.9319C57.8505 26.5831 57.1181 27.0101 56.2057 26.9077C56.1843 27.3709 56.3273 27.9244 55.6947 27.9666L55.6117 26.9396C55.2674 27.2879 54.8142 27.6188 54.534 28.0221C54.2151 28.481 54.2492 28.7636 53.7202 29.0695C53.1674 29.3893 51.9914 30.0193 51.3335 30.0738C51.4962 29.843 51.4674 29.6345 51.2476 29.4488C50.9168 29.79 50.4283 29.8236 50.0762 30.1316C51.2987 30.6424 49.1369 30.616 48.8627 30.6738C48.6791 30.7127 48.5189 30.8799 48.3329 30.9176C48.0861 30.9677 48.0542 30.7081 47.8416 30.7904C47.5307 30.9108 47.6569 31.2508 47.3315 31.4216C47.0979 31.5445 46.7015 31.5428 46.4379 31.6594C45.8095 31.9377 44.4711 32.554 44.0464 31.8064C43.8312 33.089 41.6334 32.3083 40.8198 32.222C39.7057 32.1037 37.765 31.5807 38.7986 30.0891ZM43.4783 16.9664C43.6359 16.8318 43.7938 16.8416 43.9517 16.9961C43.7319 15.8354 45.4317 15.2719 46.1732 14.7784C47.1569 14.1239 48.3147 12.854 49.6018 12.9546C49.3823 13.1172 49.1633 13.2799 48.944 13.4425C49.2571 13.4831 49.5699 13.5236 49.8825 13.5642C49.7062 13.8233 49.5296 14.0822 49.3528 14.341C49.064 12.749 47.5568 14.7589 47.1207 15.0519C46.6814 15.3467 46.2433 15.5665 45.853 15.9261C45.4662 16.2824 45.1172 16.9239 44.4778 16.6034C44.4195 17.5127 43.6885 17.266 43.183 17.7696C43.1619 17.4537 43.3428 17.2303 43.4783 16.9664ZM50.156 12.4275C51.7119 11.8447 53.0664 10.7673 54.5325 9.99764C55.9329 9.26231 57.3616 8.60207 58.7852 7.91616C59.5074 7.56804 60.8302 6.66789 61.6558 7.1266C62.7697 7.74606 61.2362 7.9459 60.8379 8.16039C60.6906 7.20649 60.1746 8.07066 60.4829 8.60135C59.6328 8.23428 57.779 9.6704 56.9681 10.0665C56.7846 10.1562 56.8669 10.208 56.6582 10.3136C56.6068 10.3395 56.0747 10.4607 55.9223 10.5118C55.1589 10.7673 54.6558 10.5643 54.3269 11.4858C54.2581 11.2689 54.1892 11.0518 54.1204 10.8347C53.6425 11.9078 52.1898 12.3776 51.2608 13.0121C51.0214 13.1758 50.3377 13.8103 50.0339 13.6791C49.6112 13.4963 49.7808 12.5678 50.156 12.4275ZM78.2227 15.6629C78.8796 15.7064 78.2462 16.0127 78.4267 16.2152C78.4063 16.1924 78.8223 16.5473 78.7678 16.4499C78.8412 16.5808 79.0176 16.5761 79.1078 16.8424C79.4185 17.7581 78.0617 18.7043 77.6042 19.224C76.7146 20.2347 76.2005 21.5147 75.2735 22.493C74.8548 22.9349 74.4383 23.2401 73.858 23.4049C73.4518 23.5203 73.0221 23.3968 72.6488 23.7874C72.3482 24.1019 72.4164 24.2806 72.0841 24.4478C71.4987 24.7427 71.2408 24.4841 70.6712 25.1213C70.1811 23.7888 71.5894 23.7909 72.3242 23.0463C73.3386 22.0182 74.4501 20.9811 75.4013 19.8813C76.2463 18.9042 76.5848 18.0474 76.986 16.8603C77.1124 16.4861 77.2501 15.6836 77.5987 15.4487C78.1416 15.0831 77.8158 15.6358 78.2227 15.6629ZM81.4529 50.2776C83.1757 48.3506 85.3129 46.6203 87.6295 45.4596C88.4574 45.0446 89.6361 44.5 90.4943 45.1389C91.3359 45.765 91.1548 47.0143 90.8155 47.864C90.4904 47.7364 90.7973 46.5421 90.6286 46.247C90.2606 45.6031 89.4665 45.945 88.9262 46.1609C88.2933 46.4138 87.7286 46.693 87.2274 47.152C87.0239 47.3379 86.6346 47.5047 86.5043 47.6325C86.3085 47.5512 86.1931 47.6105 86.1586 47.8101C86.1989 47.9324 86.1941 48.0529 86.1439 48.1714C86.1154 48.209 85.8608 48.0545 85.8246 48.0855C85.6595 48.2268 85.505 48.3931 85.3426 48.5243C85.0166 48.7879 84.7392 48.9127 84.4391 49.2803C83.8595 49.9906 83.0927 50.4069 82.5105 51.0837C82.379 51.2367 82.2214 51.629 82.1918 51.6633C81.8975 52.0069 81.4611 52.2787 81.129 52.6424C80.5549 53.2707 79.9419 53.6925 79.2795 54.2313C78.9943 54.4631 78.6615 54.7128 78.4718 55.0353C78.3854 55.1823 78.3367 55.9885 78.3336 55.9918C77.6839 56.7039 77.8103 55.2726 77.8593 55.0931C78.3868 53.162 80.1706 51.7122 81.4529 50.2776ZM77.9068 63.3353C77.9876 63.6385 78.0541 63.8893 78.1361 64.1971C77.621 63.7746 77.621 63.7746 77.9068 63.3353ZM77.3504 64.3285C77.1611 64.5193 76.9709 64.7088 76.7792 64.8971C76.3576 64.4516 77.4277 64.2522 77.3504 64.3285ZM77.0829 56.6604C76.8814 57.4757 76.1436 58.4639 75.6365 59.1073C75.6924 59.0363 75.2037 59.1791 75.148 59.2114C74.9673 59.316 75.3999 59.994 74.774 59.691C74.5518 59.8167 74.9892 60.3287 74.6874 60.5578C73.815 58.5702 76.1969 56.8481 77.1191 55.3726C77.5702 55.7867 77.1961 56.2034 77.0829 56.6604ZM71.4169 67.4071C72.0529 67.5707 72.3837 67.4678 72.8132 66.8431C73.0713 66.4678 73.1656 65.8033 73.756 66.3647L73.8602 65.6428C74.703 65.9885 74.6322 67.238 75.0005 67.9304C75.1797 67.147 75.6041 64.9588 76.9037 65.3098C78.3626 65.704 75.9344 68.213 75.7089 68.8276C75.213 68.058 75.4081 68.7739 75.0297 68.8823C74.7051 68.9756 74.198 68.7367 73.8035 68.7583C72.6035 68.8235 71.5493 69.3633 70.4531 69.8204C70.1756 69.0721 69.8982 68.3238 69.6206 67.5755C70.266 67.6252 71.6004 65.9074 71.7899 67.1559C71.3113 67.0727 71.1765 67.0938 70.9433 67.5295C71.0923 67.4539 71.2501 67.4131 71.4169 67.4071ZM74.1106 77.1742C74.1087 77.1682 75.3519 77.245 75.4628 77.2044C76.3135 76.8937 75.999 75.9288 76.1729 75.2467C76.5237 75.5692 76.3377 76.1577 76.4459 76.5749C76.5728 77.0653 76.9404 77.4832 76.9745 78.0077C77.052 79.1926 76.0796 78.9296 75.3426 79.313C74.7128 79.6407 74.643 80.0529 74.1111 79.1698C73.9672 78.9308 73.6577 78.3083 73.6893 78.0026C73.7205 77.6998 74.2001 77.4482 74.1106 77.1742ZM75.1125 82.3016L74.7687 81.9166C75.7931 82.2301 75.189 81.7587 75.4246 81.114C76.2108 81.6375 76.8521 82.1757 77.4742 81.1275L78.549 85.4627C77.8271 85.6326 76.8958 84.5172 76.4006 84.1341C76.1146 83.9126 74.5276 83.0597 75.4805 82.8112C75.3577 82.6413 75.2351 82.4715 75.1125 82.3016ZM82.1285 68.6885C81.5318 69.2559 80.9309 69.5735 80.2812 70.0195C79.7114 70.4111 79.9076 70.8604 79.4137 71.297C79.0857 71.5873 78.3168 71.8829 77.9116 72.1044C77.1897 72.4988 76.5431 72.5739 75.8006 72.1324C76.0026 73.7593 74.8884 73.8867 73.5015 74.2089C72.84 74.3627 72.4485 74.5975 71.9718 73.9918C71.6453 73.5772 71.5174 72.8265 71.9236 72.4472C72.5687 71.8445 74.2874 72.0525 75.1151 71.6735C75.7432 71.3861 76.3831 69.7664 77.158 70.3559C76.7581 69.7189 77.2237 69.5474 77.5714 69.0932C77.9521 68.5954 78.186 68.0134 78.58 67.5196C79.3285 66.5811 80.4777 65.637 81.5407 65.0711C82.4761 64.5733 82.9672 64.9257 83.1074 65.9712C83.1779 66.4969 83.1753 67.2799 82.8809 67.7463C82.7871 67.8951 82.4773 67.8968 82.3835 68.0364C82.2202 68.2804 82.3701 68.4586 82.1285 68.6885ZM93.1052 56.0707C93.8516 56.6485 93.7789 57.8624 93.8965 58.6892C94.0623 59.8544 93.9421 60.982 93.9243 62.1688C93.9056 63.4123 93.2955 64.2223 93.0083 65.3878C92.6892 66.6842 92.2773 67.3709 91.5614 68.4589C92.3378 68.581 91.1823 70.8995 90.9918 71.1996C90.785 71.5254 89.1174 73.0268 89.8323 73.0268C89.4379 73.547 89.0085 74.0808 88.6155 74.5865C88.4608 74.7856 88.1894 74.8638 88.0676 75.0044C87.8192 75.2902 87.8041 75.5449 87.6264 75.8784C87.3565 76.3844 87.2677 76.2493 86.9129 76.6164C86.6679 76.87 86.5072 77.2047 86.2665 77.4477C85.4911 78.2305 85.3923 77.5892 84.9588 76.9863C84.8923 77.1478 84.7743 77.249 84.6047 77.2901C84.4689 76.6078 85.4036 75.9185 85.7965 75.5039C86.4402 74.8245 87.0285 74.076 87.5976 73.333C88.8163 71.7409 89.9115 70.0495 90.7757 68.2377C91.695 66.3095 92.4294 64.2227 92.8109 62.1192C93.1016 60.5158 93.378 57.7655 91.2356 57.3576C89.6774 57.0611 87.9596 58.0078 86.6751 58.7743C85.8923 59.2412 85.1051 59.7054 84.3595 60.2306C83.55 60.8001 82.8504 61.6063 81.9718 62.0633C82.4524 61.8133 80.8668 62.5657 81.1096 62.3541C80.9959 62.4529 81.094 62.755 81.0189 62.8912C80.921 63.0685 80.5808 63.2437 80.4282 63.3583C80.0252 63.6611 79.3813 63.9708 79.198 64.4708C76.6415 62.647 81.7255 59.4091 83.0287 58.5846C85.6137 56.9491 90.1118 53.7534 93.1052 56.0707ZM100.001 38.3333C99.9768 37.02 101.046 35.2271 101.769 34.1561C102.122 33.6319 102.687 33.6528 102.894 33.0346C103.013 32.6785 102.856 32.3052 102.892 31.9477C102.94 31.4643 103.15 31.0766 103.392 30.6611C105.578 26.9048 108.234 23.5801 111.063 20.3029C112.459 18.6873 113.781 17.0096 115.286 15.4919C115.914 14.858 117.603 12.5793 118.57 12.8073C119.082 12.9279 119.379 13.7089 119.61 14.1073C119.992 14.7664 120.412 15.3837 120.877 15.9897C122.102 17.5897 123.515 18.9941 125.184 20.1282C126.226 20.8369 127.279 21.5257 128.299 22.2682C129.138 22.8793 130.406 23.5779 131.005 24.4358C131.604 25.294 130.724 26.0207 130.243 26.7332C129.496 27.8414 128.808 28.9896 128.057 30.0966C127.759 29.8821 127.836 29.4464 127.632 29.1717C127.45 28.9282 127.194 28.8291 126.944 28.6787C126.463 28.391 125.992 28.0393 125.559 28.5213C124.8 29.3648 125.843 31.3588 126.968 31.14C127.1 31.9725 124.855 33.3436 124.292 33.8018C122.564 35.2072 120.783 36.4291 118.501 36.5562C117.577 36.6076 116.616 36.5375 115.739 36.2285C115.319 36.0805 114.854 35.8773 114.532 35.5546C114.146 35.1683 114.048 34.5935 113.673 34.2111C113.349 33.8793 112.903 33.8282 112.579 33.4952C112.254 33.1619 112.093 32.6356 111.962 32.204C111.704 31.3607 111.655 30.4713 111.408 29.6261C111.259 29.1177 111.136 28.4381 110.651 28.9265C109.945 29.6362 110.299 31.8676 110.48 32.7179C110.738 33.9309 111.344 34.9088 111.979 35.9524C112.667 37.0845 112.921 38.1346 113.044 39.4445C113.275 41.8967 113.979 44.2498 115.074 46.456C115.534 47.3849 116.086 48.2585 116.584 49.1661C116.817 49.5895 117.337 51.0343 117.97 51.0266C118.98 51.0141 117.541 48.0687 117.341 47.5742C116.235 44.8356 115.178 41.9572 114.941 38.9918C116.527 39.4004 118.256 39.7881 119.898 39.5292C118.838 41.9001 119.945 44.2606 119.81 46.7009C119.742 47.9247 119.693 49.0538 119.719 50.274C119.741 51.344 119.258 52.4135 118.84 53.3811C118.01 55.3025 116.966 57.6729 115.425 59.1447C114.137 60.3753 112.414 60.4715 110.731 60.1881C106.903 59.5432 104.387 56.6002 102.78 53.2578C101.748 51.1105 100.959 48.8184 100.469 46.4865C99.902 43.7877 100.052 41.0707 100.001 38.3333ZM104.973 20.1452C101.4 17.5602 106.592 14.6246 109.235 15.0243C109.855 15.1179 110.995 15.3741 110.937 16.1831C110.89 16.8443 109.787 17.5813 109.363 17.9894C108.156 19.1539 106.927 21.5586 104.973 20.1452ZM130.964 77.5844C130.841 77.4746 129.841 77.7442 130.238 77.1526C130.567 76.661 131.479 77.2771 131.811 77.4035C131.538 77.5924 131.3 77.8848 130.964 77.5844ZM116.087 108.85C115.78 108.888 115.459 108.059 116.566 108.678C116.407 108.735 116.247 108.793 116.087 108.85ZM116.056 122.347C116.094 122.719 116.207 122.963 115.944 123.233C115.721 122.958 115.692 122.571 116.056 122.347ZM116.505 127.924C116.472 128.126 116.44 128.328 116.407 128.53C116.152 128.401 115.896 128.272 115.641 128.142C115.929 128.07 116.217 127.997 116.505 127.924ZM116.818 123.222C117.199 123.364 117.021 122.909 117.298 122.844C117.397 123.319 117.275 123.725 117.003 124.116C116.977 124.024 116.837 123.229 116.818 123.222ZM126.554 89.5679C126.02 89.4997 125.939 90.0645 125.54 90.2835C125.283 90.4251 124.5 90.3188 124.354 90.5896C124.547 90.6453 124.74 90.7012 124.933 90.7569C124.491 90.9949 124.05 91.2331 123.608 91.4711C124.67 91.4711 125.777 90.9637 126.832 91.1126C127.278 91.1757 127.605 91.3264 127.885 91.6892C128.055 91.9094 128.204 92.2638 128.232 92.5334C128.261 92.8251 128.034 93.0267 128.074 93.1658C128.549 93.1788 128.493 93.9587 128.387 94.2766C128.155 94.9659 127.235 96.0453 126.411 95.6081C126.756 96.0973 126.668 96.3766 126.159 96.6604C126.205 96.4987 126.239 96.2158 125.978 96.2439C125.911 96.515 125.937 96.9449 125.716 97.1493C125.468 97.378 125.247 97.1107 125.01 97.2595C124.729 97.436 124.813 97.7131 124.592 97.9046C124.3 98.1574 124.258 97.9778 123.909 98.0269C123.38 98.1018 123.717 97.7731 123.294 98.2016C123.147 98.3494 123.172 98.734 122.934 98.9504C122.478 99.3657 121.26 99.7985 120.823 99.2658C119.772 100.932 116.622 101.331 115.156 100.016C112.817 97.9192 117.178 93.6543 118.617 92.3026C120.062 90.9462 121.667 89.7744 123.291 88.6435C124.214 88.001 125.161 87.4178 126.128 86.8453C126.724 86.4919 127.473 85.8468 128.206 85.9087C128.864 85.9644 129.425 86.4744 130.117 86.5754C130.618 86.6484 131.59 86.7688 130.959 87.4477C130.663 87.7649 129.504 88.2778 129.109 88.3551C128.877 88.4004 128.632 88.3136 128.402 88.3606C128.013 88.4405 127.746 88.7689 127.323 88.7272C127.457 89.3555 127.212 89.6513 126.554 89.5679ZM133.476 66.2411C133.476 66.7327 132.579 66.6101 132.391 66.4431C132.083 66.1684 132.072 65.347 131.957 64.9734C132.479 65.1047 133.475 65.585 133.476 66.2411ZM126.248 50.0235C128.132 48.4744 130.114 47.0541 132.209 45.8032C132.959 45.3553 134.018 44.4518 134.95 44.5645C135.341 44.612 136.149 45.0609 135.855 45.5558C135.8 45.6484 135.365 45.6856 135.23 45.7528C135.078 45.8289 134.959 46.0385 134.817 46.1422C133.838 46.8602 132.662 47.3014 131.68 48.0368C130.873 48.6406 130.121 49.3162 129.252 49.8344C128.418 50.3313 127.548 50.6458 126.756 51.1962C126.772 51.1852 125.727 51.5609 125.932 51.6292C125.015 51.3224 125.984 50.2406 126.248 50.0235ZM138.814 49.4465C139.933 49.0003 141.029 48.4588 142.201 48.1589C142.786 48.0092 143.386 47.8967 143.992 47.9641C144.095 47.7839 144.232 47.7441 144.403 47.8446C144.537 48.05 144.713 48.2076 144.932 48.3177C145.266 48.5744 146.495 48.9101 146.25 49.477C146.087 49.852 144.854 49.8832 144.516 49.9674C143.496 50.2214 142.545 50.7929 141.494 50.9333C141.396 50.9464 141.074 50.827 141.07 50.8277C140.66 50.9172 140.319 51.3425 139.967 51.5465C139.209 51.9853 138.12 52.0589 137.575 52.8163C139.338 54.0113 140.868 52.8262 142.417 51.9238C143.346 51.3836 144.342 50.9937 145.357 50.6473C145.887 50.4664 146.422 50.2783 146.96 50.1195C147.182 50.0384 147.411 49.9801 147.645 49.9443C147.864 49.9009 148.02 49.9803 148.114 50.1828C148.764 50.1612 148.819 49.7536 149.211 50.5139C149.762 51.5858 148.918 51.5314 148.126 51.6631C147.026 51.8454 145.908 52.2561 144.825 52.5284C144.575 52.5913 142.385 53.0992 142.382 53.1172C142.283 53.8086 148.57 53.1683 149.11 53.0646C150.062 52.8813 151.084 52.361 152.07 52.4864C152.827 52.5827 154.552 53.6934 153.344 54.4314C153.106 53.2933 152.29 54.2333 151.864 54.6174C151.296 55.1286 150.483 55.0794 149.705 55.2798C148.64 55.5533 145.914 56.5796 145.158 55.2711C145.397 56.4179 141.052 55.8351 140.455 55.7972C139.873 55.7601 139.121 55.8839 138.558 55.7178C138.191 55.6096 137.987 55.3709 137.641 55.3172C137.557 55.4083 137.455 55.4705 137.337 55.5033C137.162 55.4148 137.004 55.3021 136.863 55.1656C135.699 54.6308 133.899 54.3352 134.546 52.6316C135.155 51.0249 137.335 50.0362 138.814 49.4465ZM149.72 50.4395C149.749 50.3395 149.778 50.2394 149.807 50.1391C149.81 50.446 150.542 50.577 150.458 50.9745C150.27 51.8548 149.426 50.5321 149.353 50.3879C149.476 50.4052 149.598 50.4222 149.72 50.4395ZM154.188 51.902C154.272 52.2626 155.245 53.0303 155.004 53.2074C154.621 52.6858 153.56 52.9226 154.188 51.902ZM137.773 84.8037C138.13 84.0971 139.207 85.3003 139.093 84.094C139.679 84.147 139.313 84.5925 140.015 84.3968C140.278 84.3234 140.455 84.0319 140.776 83.9647C140.861 83.9467 141.231 83.976 141.358 83.9721C141.78 83.9592 143.434 83.9122 142.296 83.3587C142.933 82.9374 143.011 83.1511 143.586 83.5372C143.439 82.7392 144.285 83.1922 144.679 83.2917C144.398 82.8366 145.095 82.3525 145.321 82.0449C145.24 82.5187 145.283 83.0492 145.969 82.7462C146.139 82.6708 146.101 82.3359 146.237 82.2812C146.485 82.1812 146.623 82.3633 146.712 82.353C146.8 82.3431 146.984 82.3923 147.168 82.323C147.408 82.233 147.292 81.912 147.595 81.8643C147.793 81.8333 147.937 82.1236 148.178 82.126C148.302 82.1272 148.509 82.0015 148.603 82.0082C148.619 82.0094 148.737 81.7253 148.882 81.7184C149.093 81.7081 149.179 82.275 149.257 82.3851C149.627 82.9105 150.12 83.2531 150.688 83.5333C149.66 84.4757 147.587 84.3759 146.294 84.6935C145.594 84.8658 144.997 85.1141 144.356 85.4342C144.202 85.5347 144.069 85.658 143.957 85.8041C143.867 85.7439 143.776 85.6837 143.685 85.6234C143.334 85.645 143.002 85.4713 142.607 85.538C141.387 85.7439 140.431 86.6582 139.191 86.8619C138.633 86.9535 138.175 87.0814 137.812 86.5982C137.494 86.1745 137.546 85.2542 137.773 84.8037ZM136.1 79.1722C136.377 79.4061 136.044 80.1676 136.579 80.0848C136.959 80.026 136.884 79.4366 137.182 79.3116C137.574 79.1477 137.811 79.5366 138.179 79.5006C138.866 79.433 138.827 78.8332 138.246 78.5698C138.85 78.4105 139.043 79.124 139.577 79.1175C140.279 79.1091 140.112 78.2812 140.709 78.1439C140.967 78.0844 140.881 78.4642 141.049 78.5115C141.385 78.6058 141.618 78.4438 141.916 78.3013C142.181 78.1739 142.371 77.9278 142.661 77.8443C142.793 77.8061 143.129 77.8759 143.226 77.8052C143.422 77.6627 143.597 77.1075 143.789 77.0341C143.75 77.049 144.381 77.3652 144.471 77.3949C144.416 77.6293 144.288 77.6571 144.086 77.4786C144.086 78.0077 145.556 78.1725 145.255 77.5187C146.05 77.8479 145.458 78.0173 145.378 78.4767C145.347 78.6614 145.239 78.6564 145.271 78.8517C145.286 78.9416 145.702 78.8641 145.697 78.9867C145.662 79.7763 143.146 80.0191 142.669 80.0887C141.682 80.2328 140.748 80.4754 139.796 80.7741C139.088 80.9965 137.867 81.6335 137.113 81.5939C136.029 81.537 135.887 80.1225 136.1 79.1722ZM133.678 71.1154C133.413 70.2371 134.261 68.4229 135.366 68.6496C135.637 68.7053 135.704 68.9303 135.915 69.0301C136.209 69.1697 136.688 69.0963 136.943 69.2405C137.514 69.5642 137.226 70.3887 137.799 70.6867C136.895 70.906 134.098 72.5115 133.678 71.1154ZM134.724 74.528C135.114 74.3185 135.746 74.2916 136.011 73.8888C136.144 73.9805 136.394 74.5368 136.631 74.4517C136.742 74.4121 136.856 74.1105 136.849 74.1107C137.06 74.1047 137.102 73.8185 137.425 73.8507C137.722 73.8804 138.054 74.2369 138.318 74.3699C138.272 73.486 138.499 73.4016 139.216 72.9285C139.373 72.8248 139.504 72.4357 139.649 72.2783C139.51 73.2058 139.86 73.2108 140.6 73.3502C141.529 73.5249 142.107 74.0234 142.479 74.9204C141.688 74.7662 140.667 74.9519 140.356 75.8024C139.724 74.6486 137.429 76.2407 136.687 76.5667C136.136 76.8088 135.494 77.1341 135.032 76.5701C134.707 76.1728 134.894 75.6949 134.9 75.342C134.902 75.2311 135.017 75.2247 135.006 75.0596C134.993 74.849 134.719 74.7647 134.724 74.528ZM143.172 92.6704C142.963 92.7496 141.887 92.794 141.88 92.4377C141.874 92.1229 143.778 92.4401 143.172 92.6704ZM141.425 91.5179C140.611 92.0195 139.7 90.2518 139.401 89.7427C140.255 89.8519 140.672 89.1379 141.174 88.5952C141.653 89.6434 142.379 89.0895 143.143 88.7394C144.044 88.3265 145.032 88.3234 145.955 87.9921C146.243 87.8887 146.509 87.7349 146.79 87.6166C147.017 87.532 147.242 87.4451 147.467 87.3561C147.627 87.2121 147.684 87.0349 147.637 86.8247C147.561 86.6481 147.613 86.5366 147.792 86.4905C148.004 86.5538 148.221 86.5908 148.443 86.6006C148.799 86.5301 149.31 86.1944 148.88 85.8326C149.341 85.4147 149.801 85.8302 150.245 86.0133C150.139 85.7132 150.034 85.413 149.929 85.1129C150.149 85.2062 150.801 86.1179 150.868 86.1129C151.29 86.0812 151.246 85.5152 151.488 85.2868C151.628 85.4593 151.668 86.7455 152.218 86.3122C152.453 86.127 151.947 85.4961 151.822 85.3523C152.451 85.4944 153 86.2453 153.17 86.8283C152.872 86.8715 152.595 86.8115 152.342 86.6479C152.18 87.4597 153.683 87.1308 153.926 87.555C154.402 88.3853 151.303 88.9621 150.899 89.0391C150.091 89.1931 149.138 89.2504 148.397 89.6086C147.687 89.9515 147.519 90.0496 146.69 90.1139C145.744 90.1873 144.82 90.4992 143.905 90.742C143.11 90.9526 142.129 91.0836 141.425 91.5179ZM158.722 61.7948C159.47 61.5259 161.987 60.1303 162.628 60.751C162.56 60.6852 163.09 61.7797 163.084 61.7109C163.13 62.2802 163.116 62.5093 162.415 62.7821C161.913 62.9773 161.476 62.5623 161.025 62.7271C160.529 62.9083 160.876 63.2288 160.62 63.4526C160.341 63.698 159.801 63.8041 159.453 63.9116C158.601 64.1748 157.742 64.3948 156.894 64.6783C155.168 65.2553 153.341 65.7922 151.567 66.2003C150.242 66.5053 147.993 67.2632 146.772 66.368C146.652 66.8769 146.361 66.8073 145.957 66.8815C145.639 66.9395 145.065 67.0967 144.783 67.1048C144.314 67.1185 143.008 66.9954 143.188 66.3369C143.139 66.5182 144.203 65.8973 144.019 65.8587C144.471 65.9539 144.325 65.7263 144.695 65.5996C145.179 65.4343 145.685 65.4432 146.179 65.268C147.424 64.8266 148.469 64.2537 149.783 63.9771C152.786 63.3454 155.826 62.8372 158.722 61.7948ZM38.3588 129.832C38.1155 129.839 37.9262 129.147 38.6664 129.641C38.5639 129.705 38.4615 129.768 38.3588 129.832ZM32.5121 128.938C32.1813 129.022 32.0493 128.838 32.1168 128.384C32.5781 128.202 32.7098 128.386 32.5121 128.938ZM27.9984 128.012C27.9137 127.607 28.2136 127.516 28.4854 127.335C28.4581 127.871 28.4581 127.871 27.9984 128.012ZM16.6414 124.683C16.1839 124.583 15.5743 124.135 15.4694 124.887C15.3929 124.713 15.0023 123.895 15.17 123.705C15.2576 123.606 15.5892 124.064 15.5539 124.019C15.9543 123.209 16.6445 124.187 17.0303 124.476C16.9008 124.545 16.771 124.614 16.6414 124.683ZM135.594 35.1729C135.752 34.8389 135.938 34.7329 136.152 34.855C135.816 35.6362 134.677 36.0596 135.594 35.1729ZM143.509 27.8402C143.791 28.3692 143.366 28.5928 143.063 29.0326C143.241 28.5583 143.364 28.2296 143.509 27.8402ZM177.907 79.48C178.925 79.4798 181.093 78.9426 181.707 80.1059C182.113 79.3154 182.574 80.7978 182.927 81.0356C182.966 81.0625 183.22 80.8684 183.338 80.9399C183.516 81.0476 183.67 81.341 183.772 81.5154C184.079 82.0413 184.211 82.6665 184.382 83.2452C182.604 83.2452 180.781 82.8313 179.005 82.6809C177.84 82.5821 176.697 82.5792 175.529 82.6421C175.297 82.6545 174.837 82.578 174.638 82.6217C174.437 82.666 174.071 83.0765 173.849 83.0106C174.194 83.6586 178.616 85.2273 178.953 84.5098C178.553 84.2679 177.666 84.0822 177.666 83.4978C177.667 82.8431 178.499 82.8443 178.94 82.8635C179.905 82.9057 181.52 83.2267 181.915 84.2295C182.084 84.6595 182.136 85.742 181.95 86.157C181.83 86.425 181.627 86.7472 181.304 86.8017C181.172 86.824 180.981 86.6481 180.961 86.6524C180.3 86.7928 179.075 87.3242 178.353 86.5749C177.833 87.2484 175.326 86.5128 174.559 86.2587C173.217 85.8144 171.369 85.2043 170.553 83.952C169.56 82.4256 171.58 81.1356 172.74 80.5152C174.326 79.6674 176.137 79.4807 177.907 79.48ZM184.68 83.0091C184.992 83.0972 185.304 83.1855 185.616 83.2735C185.533 83.8205 184.302 83.3877 184.68 83.0091ZM194.111 102.892C194.207 100.701 193.573 98.7707 193.207 96.651C193.117 96.1256 193.209 95.207 192.81 94.7749C192.429 94.3618 191.578 94.6977 191.544 93.9674C191.169 94.4071 191.207 94.499 190.744 93.9933C190.828 94.2102 190.84 94.4306 190.78 94.6552C190.493 94.4906 189.453 93.9441 189.54 94.6914C188.684 94.5021 188.932 93.9669 188.444 93.5583C188.375 93.5003 188.096 93.7063 187.987 93.6185C187.791 93.4595 187.694 93.3151 187.528 93.1102C187.318 93.3645 187.032 93.5482 186.774 93.7493C186.625 93.4237 186.334 93.1848 185.984 93.1056C186.311 93.7898 187.12 94.6761 186.011 95.0655C185.349 95.2977 184.265 95.0129 183.564 95.0671C180.965 95.2687 178.12 94.7022 175.607 94.0833C173.027 93.4475 170.417 92.55 168.096 91.2381C167.601 90.9584 167.29 90.6273 166.864 90.2804C166.449 89.9431 166.148 89.8898 165.651 89.6741C164.754 89.286 163.935 88.6634 163.253 87.9696C161.788 86.4775 160.426 84.5263 160.834 82.3419C161.241 80.1647 162.738 78.4632 164.339 77.0295C166.23 75.3362 168.366 73.9224 170.632 72.7826C171.645 72.2733 174.237 70.3592 175.238 71.4791C175.878 72.1946 175.518 73.1074 174.644 73.2665C174.429 73.3058 174.203 73.1612 173.985 73.2603C173.671 73.4032 173.781 73.5721 173.652 73.6914C173.426 73.8984 173.187 74.2213 172.85 74.4008C171.676 75.0272 170.54 75.5236 169.417 76.2865C168.899 76.638 168.401 76.7891 167.944 77.096C167.49 77.4009 167.387 77.9057 166.777 77.5943C166.994 78.482 165.689 79.4325 165.178 79.9764C164.385 80.8185 163.435 81.8933 163.805 83.1391C164.529 85.5781 167.799 87.4305 169.892 88.5026C172.503 89.8404 175.384 90.9054 178.292 91.3461C179.737 91.5651 181.231 91.7004 182.688 91.8394C183.822 91.9476 185.562 91.5514 186.378 92.5728C186.404 91.3818 190.123 91.4869 190.915 91.3346C189.328 85.9089 186.211 81.085 182.879 76.578C181.244 74.3655 179.638 72.0902 177.774 70.062C175.733 67.8416 173.402 65.8573 171.187 63.8142C166.842 59.8069 161.928 56.2305 156.928 53.08C151.939 49.9369 146.772 46.8435 141.307 44.6024C135.065 42.043 128.493 40.3596 121.913 38.9259C122.806 37.7887 124.258 37.234 125.4 36.402C125.801 36.1107 126.341 35.4116 126.861 35.3161C127.424 35.2125 127.867 35.818 128.268 36.122C129.417 36.9943 130.213 36.6239 131.53 36.5713C132.318 36.5399 134.184 36.9787 134.517 35.9128C134.959 36.5011 134.318 36.9727 133.99 37.4041C134.228 37.7371 134.421 37.3916 134.657 37.3395C134.729 37.2793 134.802 37.2189 134.875 37.1587C134.992 36.9893 135.097 36.9883 135.191 37.1553C135.332 37.3669 135.473 37.3201 135.616 37.0147C135.655 36.9902 135.694 36.9655 135.733 36.9411C135.903 36.8504 136.067 36.7069 136.226 36.5939C137.423 35.7386 138.489 35.01 139.811 34.38C140.92 33.8512 140.323 32.8395 141.055 32.125C141.22 31.9633 141.499 32.0444 141.676 31.9074C141.849 31.7729 141.875 31.6203 142.002 31.4761C142.306 31.1294 141.944 30.7271 142.719 31.1515L142.44 29.5774C143.96 31.0524 143.954 26.8079 144.162 26.1798C144.134 26.2628 144.298 25.62 144.298 25.6256C144.343 24.3519 144.517 23.4287 143.025 23.3548C143.59 22.9995 143.762 23.6933 144.023 22.975C144.154 22.6151 143.746 21.9966 144.396 22.2286C144.533 21.4638 144.397 20.8448 144.227 20.1016C144.052 19.3408 144.155 18.8332 144.163 18.0724C144.172 17.2094 143.768 16.3421 143.639 15.4924C143.537 14.8268 143.642 13.7772 142.781 14.0217C142.66 13.8324 143.085 13.2501 143.068 12.9622C143.041 12.515 142.556 12.0606 142.418 11.6312C142.216 11.8399 141.931 11.9095 141.656 11.8152C141.914 11.2318 141.672 11.0357 141.424 10.5326C141.283 10.2445 141.368 9.92638 141.065 9.71982C140.891 9.6013 140.594 9.80091 140.458 9.662C140.166 9.36451 140.274 8.96985 140.073 8.57784C139.821 8.08625 139.245 7.71079 138.848 7.3418C136.616 5.26776 134.193 3.68265 131.225 2.87223C128.23 2.0546 124.739 1.76167 121.755 2.70477C120.562 3.08167 119.503 3.04305 118.429 3.74695C118.081 3.97535 118.044 3.91417 117.867 4.29491C117.826 4.38368 118.197 4.61999 117.97 4.76514C117.723 4.92276 117.451 4.60224 117.325 4.33618C115.772 5.46041 114.317 6.95914 113.432 8.67764C112.553 10.3853 112.473 12.3915 112.137 14.2472C110.589 12.4786 108.495 11.6307 106.218 12.481C104.234 13.2218 102.696 14.8504 102.308 16.9601C102.072 18.2463 102.33 19.5488 102.914 20.7093C103.167 21.2107 103.473 21.7658 103.937 22.1034C104.305 22.3702 104.934 22.3328 105.107 22.814C105.372 23.5513 103.841 25.1436 103.443 25.7889C102.724 26.9568 102.056 28.1629 101.547 29.4385C99.7237 26.8626 97.9781 24.0491 95.9045 21.674C93.9476 19.4322 91.6147 17.4217 89.3266 15.5269C84.5778 11.5943 79.6399 7.8996 74.3277 4.76658C69.3815 1.84924 63.4067 0.229587 57.642 0.802259C52.0096 1.36198 47.6974 4.9242 44.0687 9.03271C37.0916 16.9323 32.8183 28.1917 32.4008 38.7073C32.2753 41.8662 32.516 44.9839 33.2962 48.0478C33.6678 49.5067 33.6138 50.9416 33.8297 52.4193C34.0735 54.0862 34.495 55.7471 34.9026 57.3799C36.4553 63.6002 38.4337 69.8156 40.6536 75.8297C41.8078 78.9572 43.2043 82.0147 45.0936 84.7725C45.9662 86.0464 47.0967 87.043 48.0357 88.2527C48.9466 89.4258 49.1873 90.8658 49.3876 92.3053C49.8679 95.7569 50.1865 99.2231 50.4754 102.695C50.598 104.166 50.7412 105.625 50.936 107.086C51.1059 108.36 50.6786 108.297 49.6069 108.73C49.8242 107.585 44.704 108.364 44.2206 108.442C43.6945 108.527 43.1374 108.528 42.7231 108.596C42.2598 108.671 41.8064 108.78 41.2728 108.765C40.4885 108.742 39.02 108.542 38.7206 109.543C38.5145 108.383 37.1532 109.652 38.1604 109.436C37.1266 109.552 36.0717 109.359 35.0255 109.457C33.8264 109.568 32.617 109.674 31.4263 109.855C30.5974 109.98 29.8064 110.299 28.9761 110.392C27.9135 110.511 26.8046 110.5 25.7317 110.594C21.7744 110.943 17.6726 111.807 13.8258 112.795C12.9544 113.019 11.9533 113.178 11.1208 113.537C10.8979 113.633 10.6973 113.848 10.4838 113.931C10.1259 114.069 10.1748 113.973 9.85692 114.037C7.95225 114.418 5.98737 115.039 4.08294 115.527C3.0266 115.798 1.30835 116.042 0.446579 116.78C0.0603192 117.11 -0.277238 117.695 0.341737 118.071C0.836197 118.37 1.54202 117.892 1.9422 117.633C1.58569 118.563 0.913209 119.026 1.27644 120.083C1.56313 120.918 2.21042 121.947 3.2063 121.409C3.33969 121.719 3.39367 122.336 3.78641 122.45C4.13932 122.552 4.39482 122.105 4.74054 122.21C4.86433 122.248 4.81731 122.482 4.92815 122.543C5.11912 122.648 5.31273 122.693 5.53153 122.767C5.71962 122.831 6.02239 122.962 6.21864 122.976C6.34316 122.985 6.63657 122.772 6.63561 122.772C6.92159 122.815 7.07537 123.362 7.28122 123.52C7.54848 123.726 7.7692 123.772 8.10388 123.847C8.79962 124.001 9.69642 124.266 10.1556 123.554C10.0505 124.063 10.7422 124.013 11.0474 124.077C11.0135 123.809 10.8655 123.564 10.6371 123.417C11.3194 123.462 11.0428 124.14 11.5471 124.319C11.9065 124.447 11.8657 124.123 12.1407 124.087C12.5029 124.039 12.7779 124.302 13.3436 124.06C13.4662 124.605 13.511 125.154 14.1802 125.235C14.5729 125.283 15.4886 124.574 15.4368 125.164C16.3142 124.907 16.6472 125.081 17.1056 125.854C17.1831 125.379 17.5581 125.517 17.9022 125.488C18.4475 125.441 18.4614 125.485 18.8841 125.176C18.9227 125.148 19.2553 124.387 19.4031 124.86C19.4695 125.072 19.0302 125.571 18.8676 125.698C19.0696 125.8 19.7315 126.158 19.986 126.092C20.2063 126.035 20.207 125.659 20.4716 125.639C20.4068 125.856 20.3423 126.073 20.2773 126.289C20.7921 126.364 21.2223 126.019 21.629 125.767C22.0167 126.747 23.1248 126.195 23.7275 126.933C24.0463 127.323 24.0612 127.619 24.6687 127.721C25.2903 127.826 25.8332 127.553 26.3615 128.066C26.194 127.748 25.7768 127.484 26.1914 127.142C26.4735 127.542 26.6192 128.024 26.9445 128.397C26.9893 128.207 27.0342 128.018 27.0791 127.829C27.9272 128.736 28.9948 128.744 30.0811 129.247V128.583C30.8589 129.77 30.9004 129.019 31.8296 128.534C31.7665 128.883 31.7031 129.232 31.64 129.581C32.3087 129.53 32.9334 130.323 33.4823 129.65C33.8139 130.206 34.2158 129.932 34.7592 130.109C35.0682 130.209 35.2982 130.513 35.5988 130.623C36.0496 130.788 36.1842 130.781 36.6086 130.925C36.986 131.052 37.2005 131.301 37.6729 131.38C37.9797 131.432 38.258 131.428 38.5517 131.414C38.6652 131.409 38.6278 131.153 38.8799 131.213C39.2698 131.305 39.56 131.794 39.8407 132.045C40.263 130.984 41.4453 132.405 42.0168 132.595C42.0715 132.322 42.0616 131.995 42.2586 131.771C42.4899 132.278 42.5782 132.703 43.0582 133.03C43.3353 133.218 43.7422 133.353 44.0623 133.422C44.2645 133.465 44.632 133.413 44.7592 133.476C44.9761 133.582 45.056 133.866 45.275 133.892C45.4038 133.908 45.5948 133.569 45.6913 133.595C46.1327 133.716 46.3779 134.252 46.8237 134.542C48.1501 135.405 49.8194 135.489 51.2973 135.678C51.6682 135.725 51.722 135.624 52.0233 135.842C52.184 135.958 52.1111 136.312 52.3088 136.411C53.0537 136.784 53.0542 135.987 53.2104 135.492C53.4568 135.818 53.4992 136.247 53.8363 136.505C54.0203 136.5 54.2046 136.504 54.3883 136.518C54.492 136.636 54.5601 136.773 54.5918 136.927C55.038 137.229 55.5435 137.124 56.0044 137.35C56.1555 137.424 56.4233 137.873 56.6095 138.001C56.9427 138.232 57.458 138.356 57.8388 138.456C58.6372 138.666 59.7821 138.387 60.2571 139.22C60.8878 138.544 60.6438 139.352 61.0721 139.521C61.3249 139.621 61.7052 139.223 61.9857 139.263C62.4907 139.334 62.6725 139.881 62.8342 140.278C63.1418 140.21 62.9307 139.339 62.922 139.149C63.3042 139.104 63.3892 140.11 63.4551 140.331C64.0585 140.041 63.0682 139.136 63.7169 138.846C63.6574 139.617 64.2713 140.251 63.1749 140.361C63.3263 140.825 66.8626 141.341 67.1083 140.931C67.1627 141.688 67.6714 140.981 67.859 140.722C67.8801 141.164 67.7297 141.791 68.2253 141.996C68.5622 142.135 69.3217 141.775 69.4539 141.445C69.6048 141.949 69.8577 141.933 70.172 142.253C70.3879 142.473 70.5302 142.854 70.7566 143.039C71.1734 143.378 71.9485 143.326 72.4341 143.25C73.3842 143.102 73.2719 142.92 73.6104 143.907C73.6869 143.532 73.9268 142.749 74.3453 143.331C74.6116 143.702 74.0446 144.517 73.8808 144.843C74.2469 144.642 74.6104 144.403 75.0269 144.316C75.0501 144.445 75.0715 144.717 75.0101 144.836C75.0225 144.812 75.4669 145.11 75.6317 145.192C75.5921 145.172 75.7619 144.431 75.7571 144.455C76.3432 144.817 75.9366 145.508 76.4558 145.865C76.5899 145.957 76.9046 145.85 77.0668 145.906C77.3492 146.004 77.5934 146.268 77.8444 146.423C77.6441 146.154 77.6728 145.703 77.6865 145.393C77.8142 145.464 77.9053 145.728 78.0342 145.748C78.0829 145.756 78.5879 145.823 78.5845 145.821C79.1102 146.189 79.002 146.235 78.5507 146.678C78.7119 146.931 79.3858 146.491 79.5682 146.418C79.6063 146.517 79.6161 146.877 79.6879 146.941C79.7313 147.048 79.775 147.154 79.8186 147.261C79.9532 147.16 80.0976 147.127 80.2517 147.16C80.3491 147.194 81.1094 147.503 81.1609 147.397C80.9947 147.344 80.8438 147.261 80.7089 147.15C81.1477 146.756 81.4364 146.546 81.8406 147.116C81.8915 147.187 81.7166 147.445 81.7684 147.538C81.9615 147.887 82.3583 148.164 82.6278 148.448C82.7393 148.056 82.4797 147.075 83.0992 147.111C83.5941 147.139 83.9706 148.338 83.7993 148.711C83.996 148.496 85.1706 148.282 85.3923 148.349C86.0192 148.539 85.8433 149.119 86.6146 148.269C87.1405 148.632 86.677 148.77 86.7718 149.212C86.9107 149.241 87.0422 149.207 87.1667 149.109C87.0736 150.99 88.461 149.553 89.3619 149.84C89.7155 149.953 89.806 150.354 90.1855 150.472C90.3863 150.534 90.6097 150.387 90.805 150.423C90.9614 150.4 91.1168 150.373 91.2713 150.34C91.4671 150.242 91.559 150.351 91.547 150.669C91.8618 150.832 91.7428 150.896 92.1108 150.928C92.3478 150.948 92.5659 150.702 92.8353 150.744C93.3 150.817 93.2386 151.173 93.5356 151.36C93.8029 151.528 94.1042 151.522 94.4334 151.49C94.6011 151.473 95.072 151.257 95.1287 151.256C95.4804 151.252 95.2896 151.177 95.7119 151.479C96.0406 151.714 96.1785 151.867 96.5821 151.975C97.0448 152.099 97.8658 152.371 98.1772 152.036C98.5978 152.667 98.9272 152.204 99.4824 152.246C99.7664 152.267 99.8115 152.378 100.064 152.422C100.474 152.494 100.985 152.432 101.421 152.572C102.108 152.792 102.186 152.903 102.888 152.933C103.014 152.883 103.141 152.834 103.267 152.784C103.305 152.996 103.405 153.168 103.566 153.302C103.959 153.384 104.217 153.186 104.541 152.969C104.782 153.721 105.565 153.786 106.235 153.885C107.316 154.045 108.35 154.132 109.392 154.487C110.272 154.787 111.154 155.124 112.001 155.508C112.746 155.846 113.449 156.351 114.292 156.114C116.202 155.576 118.053 153.615 119.651 152.49C121.544 151.156 123.586 150.057 125.564 148.858C133.437 144.086 141.756 140.048 149.52 135.098C153.758 132.395 157.691 129.184 162.243 126.997C161.595 129.675 160.492 132.393 160.691 135.197C160.771 136.326 161.104 137.661 161.98 138.45C163.063 139.425 164.27 138.804 165.306 138.107C167.526 136.615 169.006 134.437 170.667 132.392C172.633 129.973 174.157 127.373 175.6 124.616C175.945 125.101 175.683 125.914 175.688 126.453C175.694 127.139 175.879 127.801 176.198 128.414C177.02 129.996 178.584 130.379 179.997 129.295C182.717 127.209 184.296 123.494 185.754 120.503C186.585 122.049 187.765 123.996 189.761 122.891C191.408 121.98 192.376 119.943 192.88 118.218C194.351 113.183 193.885 108.054 194.111 102.892Z" fill="black"/>
<path fill-rule="evenodd" clip-rule="evenodd" d="M191.613 72.647C191.425 72.1907 191.342 72.2653 191.688 71.8229C191.957 72.088 191.742 72.3071 191.613 72.647ZM199.938 100.264C199.409 98.7622 199.736 97.1313 199.415 95.5908C199.268 94.8841 199.035 94.1984 198.951 93.4789C198.914 93.1596 198.63 91.7222 198.824 91.496C198.228 91.1352 198.226 90.8681 198.088 90.1606C198.3 89.9354 198.274 89.7432 198.008 89.5837C197.834 89.3735 197.66 89.1631 197.486 88.9529C198.247 89.3246 197.797 88.3733 197.719 87.8251C197.658 87.3918 197.617 86.9398 197.472 86.5245C197.294 86.014 196.899 85.7559 197.721 85.7559C197.451 85.448 197.046 85.1304 196.911 84.7535C196.717 84.211 197.037 83.4942 196.642 83.0151C196.421 82.7478 195.285 82.6432 195.484 82.066C195.586 81.7719 196.046 81.9914 196.189 81.7853C196.749 80.9753 195.095 80.6397 195.014 80.2952C194.909 79.8485 195.506 79.7487 195.543 79.331C195.579 78.9222 194.943 78.2504 194.775 77.8848C194.546 77.9404 194.295 78.3025 194.033 78.1295C193.984 78.0969 194.058 76.6816 193.999 76.4938C193.94 76.309 193.821 75.8191 193.778 75.7285C193.608 75.3683 193.123 75.193 193.046 74.7676C193 74.5138 193.995 74.1294 192.854 74.1174C193.264 73.3953 192.513 72.9565 192.24 72.3394C191.888 71.5461 191.681 70.6891 191.321 69.8916C190.97 69.1165 190.578 68.3809 190.072 67.6955C189.614 67.0748 189.416 66.4779 189.05 65.8225C188.977 65.7649 188.904 65.7073 188.831 65.6497C188.526 65.6939 188.428 65.5549 188.537 65.2327C188.304 64.887 188.13 64.518 187.924 64.157C187.685 63.7374 187.362 63.3953 187.115 62.9872C186.787 62.4462 186.69 61.8361 186.32 61.2934C185.864 60.6257 185.352 60.037 184.929 59.3443C184.4 58.4766 183.814 57.9372 183.148 57.2652C182.831 56.9452 182.793 56.1458 182.404 55.6914C181.981 55.1965 181.564 55.0624 181.271 54.4127C180.889 53.5675 180.329 53.1639 179.785 52.4334C179.335 51.8307 179.115 51.1381 178.62 50.5551C178.194 50.0544 177.711 49.5969 177.256 49.1221C176.683 48.5226 176.259 47.794 175.661 47.2239C175.748 47.3062 175.142 46.8259 175.172 46.8413C175.038 46.7729 174.605 46.718 174.668 46.7551C173.767 46.2252 172.637 44.2855 171.28 45.3133C170.566 45.8538 170.909 46.8451 171.407 47.3835C171.621 47.6147 172.733 48.7548 172.973 48.274C173.233 48.6416 174.031 50.4184 174.696 49.9093C174.628 50.5165 174.98 50.315 175.212 50.7255C175.365 50.9963 175.29 51.1292 175.402 51.552C175.708 52.7141 176.877 53.8491 177.499 54.8625C179.049 57.3847 180.758 59.7769 182.309 62.302C183.788 64.7085 185.443 66.992 186.861 69.431C188.474 72.2044 190.484 74.8223 191.699 77.8121C191.74 77.9126 192.077 78.0717 192.161 78.2226C192.307 78.4848 192.276 78.9382 192.37 79.2353C192.696 80.265 193.224 81.2786 193.826 82.1315C194.355 82.8798 194.393 83.8968 194.757 84.7746C195.269 86.0118 195.811 87.2361 196.309 88.4796C197.084 90.415 197.609 92.27 198.145 94.2905C198.492 95.6 198.768 96.9087 198.879 98.2608C198.98 99.5043 199.005 100.8 199.466 101.977C199.779 101.492 200.149 100.864 199.938 100.264Z" fill="black"/>
<path fill-rule="evenodd" clip-rule="evenodd" d="M22.6092 126.909C22.0522 126.797 21.528 126.646 21.4099 126.007C21.3291 126.308 21.2485 126.61 21.1676 126.912C21.8458 127.065 22.5243 127.219 23.2025 127.372C23.0442 127.093 22.9286 126.974 22.6092 126.909Z" fill="black"/>
<path fill-rule="evenodd" clip-rule="evenodd" d="M24.104 21.9374C24.1462 21.757 24.2009 21.5802 24.2683 21.4077C24.3142 21.5759 24.5387 21.9396 24.408 22.0982C24.2415 22.2994 24.073 22.1855 24.104 21.9374ZM26.8349 16.7414C27.0177 16.822 27.4133 16.8376 27.6403 16.9057C27.0516 17.4122 26.9479 17.2632 26.1867 17.2044C26.1528 16.692 26.3611 16.5329 26.8349 16.7414ZM21.7317 29.4275C21.8107 29.4297 21.8898 29.4316 21.9692 29.4335C21.974 29.2104 21.9683 28.9875 21.9515 28.7649C22.7542 28.9402 22.2998 27.5375 22.0477 27.2467C22.8308 27.2728 23.2122 24.7936 23.4603 24.3159C23.6805 23.8917 23.9301 23.7276 24.091 23.2104C24.2319 22.7577 24.3842 22.3503 24.5874 21.9221C25.0543 20.9375 25.6668 20.0433 25.5538 18.8958C25.9494 19.7568 26.2973 18.8972 26.5482 18.4855C26.9525 17.8222 27.9388 16.9758 28.0436 16.1879C28.1362 15.4943 27.6209 15.4576 27.9251 14.8144C28.2326 14.1633 28.4855 14.2285 29.0244 14.0203C29.3828 13.8816 29.454 14.05 29.7069 13.5976C29.8708 13.3046 29.813 13.0863 30.0229 12.8462C30.1095 12.9215 30.2081 12.9527 30.3184 12.9397C30.4888 12.7149 30.6006 12.4645 30.6536 12.1883C30.7925 11.8155 30.8597 11.4731 31.0689 11.1181C31.2673 10.7817 31.6195 9.88179 31.8061 9.71961C32.0043 9.54736 33.1283 9.63492 33.1235 9.64116C33.5877 9.05721 32.7358 8.47542 33.9155 8.5985C33.6825 8.16474 34.5009 7.62637 34.7384 7.38502C35.3317 6.7826 35.3789 6.50382 35.5042 5.74618C35.5677 5.35992 35.1527 5.40454 35.709 5.31649C35.9391 5.28027 36.1598 5.5744 36.3259 5.53121C37.0588 5.3412 36.292 5.37743 36.4943 5.07874C36.5581 4.98397 36.8841 4.60155 36.881 4.60563C36.8652 4.62482 36.9544 4.27287 37.0283 4.18242C37.1684 4.17043 37.3064 4.14596 37.4419 4.10901C37.5108 3.96986 37.5717 3.82735 37.6245 3.68149C38.155 3.23909 38.9486 3.04116 39.3154 2.5551C39.5527 2.24081 39.4817 1.933 39.7883 1.61968C40.0803 1.32122 40.4665 1.53739 40.5243 0.86323C40.598 0.00554179 39.6767 -0.37616 39.2998 0.489446C38.2778 -0.769377 34.0059 3.84919 33.5124 4.45257C31.3688 7.07193 29.2619 9.75608 27.5036 12.6525C25.7903 15.4749 24.3842 18.4445 23.2852 21.5574C22.7552 23.0583 22.4325 24.5525 22.1089 26.1049C22.0002 26.6248 21.1881 28.9417 21.5261 29.4601C21.5945 29.4493 21.6631 29.4383 21.7317 29.4275Z" fill="black"/>
<path fill-rule="evenodd" clip-rule="evenodd" d="M190.464 93.6618C190.825 93.4209 190.825 93.4209 190.888 92.9658C190.404 93.0541 190.404 93.0541 190.464 93.6618Z" fill="black"/>
<path fill-rule="evenodd" clip-rule="evenodd" d="M12.4873 124.281C12.4919 124.28 12.4953 124.282 12.4979 124.284C12.4902 124.274 12.4624 124.245 12.4873 124.281Z" fill="black"/>
<path fill-rule="evenodd" clip-rule="evenodd" d="M12.2451 124.525C12.3567 124.766 12.5359 124.826 12.783 124.704C12.8804 124.844 11.9381 123.836 12.2451 124.525Z" fill="black"/>
<path fill-rule="evenodd" clip-rule="evenodd" d="M28.5414 14.478C27.9759 15.5867 28.6841 14.7803 28.6479 15.1404C28.6716 14.9039 28.7698 14.5668 28.5414 14.478Z" fill="black"/>
<path fill-rule="evenodd" clip-rule="evenodd" d="M120.474 31.6367C120.719 33.6246 123.439 32.6844 124.05 31.4819C124.496 30.6065 125.621 27.1472 124.41 26.4164C123.513 25.8747 123.322 28.2095 123.1 28.7311C122.73 29.6046 122.44 28.9856 121.616 29.2097C120.706 29.4571 120.373 30.8123 120.474 31.6367Z" fill="black"/>
<path fill-rule="evenodd" clip-rule="evenodd" d="M117.502 27.9981C118.475 28.2141 119.427 28.1027 120.118 27.335C120.5 26.9099 121.009 26.0666 120.321 25.6552C119.697 25.2826 118.989 26.1551 118.332 25.9747C117.438 25.7293 117.898 24.7711 117.592 24.1382C116.465 24.7869 115.837 27.6282 117.502 27.9981Z" fill="black"/>
<path fill-rule="evenodd" clip-rule="evenodd" d="M118.51 33.0176C117.573 33.0157 117.566 34.1682 118.055 34.6622C118.523 35.1348 119.707 35.6132 120.341 35.2457C121.593 34.5202 119.269 33.0924 118.51 33.0176Z" fill="black"/>
<path fill-rule="evenodd" clip-rule="evenodd" d="M63.9858 78.8499C64.1859 78.9471 64.7756 79.4471 65.0241 79.2213C64.6734 78.8679 64.3224 78.5145 63.9716 78.1611C63.7778 78.3737 63.6449 78.6844 63.9858 78.8499Z" fill="black"/>
<path fill-rule="evenodd" clip-rule="evenodd" d="M59.5572 28.2856C59.4577 28.36 59.3579 28.4341 59.2583 28.5083C59.5944 28.7883 59.586 28.8715 59.9248 28.6064C59.8243 28.474 59.7019 28.3672 59.5572 28.2856Z" fill="black"/>
<path fill-rule="evenodd" clip-rule="evenodd" d="M123.069 94.2416C122.881 93.9033 122.525 94.5271 122.284 94.6285C121.893 94.7934 121.572 93.9201 121.684 94.9668C120.799 94.5616 120.262 95.4913 119.691 95.9754C118.885 96.6596 117.898 97.0308 117.36 98.0024C119.892 98.5948 122.674 96.412 124.562 94.9783C124.87 94.7442 126.41 93.5631 125.366 93.4489C124.939 93.4023 123.386 94.8101 123.069 94.2416Z" fill="black"/>
<path fill-rule="evenodd" clip-rule="evenodd" d="M122.318 92.192C122.814 91.8014 121.745 91.7656 121.576 91.7246C121.59 92.0353 121.604 92.3457 121.619 92.6564C121.858 92.5113 122.092 92.3563 122.318 92.192Z" fill="black"/>
<path fill-rule="evenodd" clip-rule="evenodd" d="M120.455 93.4946C120.603 93.402 121.017 93.1129 120.736 92.8975C120.482 93.0592 120.3 93.3231 120.26 93.6242C120.325 93.581 120.39 93.5378 120.455 93.4946Z" fill="black"/>
<path fill-rule="evenodd" clip-rule="evenodd" d="M79.4512 68.3018C79.1343 68.426 78.9923 68.6225 79.0256 68.8917C79.5127 68.7921 79.4198 68.3322 79.4512 68.3018Z" fill="black"/>
</svg>
