<svg xmlns="http://www.w3.org/2000/svg" xmlns:xlink="http://www.w3.org/1999/xlink" width="500" zoomAndPan="magnify" viewBox="0 0 375 374.999991" height="500" preserveAspectRatio="xMidYMid meet" version="1.0"><rect x="-37.5" width="450" fill="#ffffff" y="-37.499999" height="449.999989" fill-opacity="1"/><rect x="-37.5" width="450" fill="#ffffff" y="-37.499999" height="449.999989" fill-opacity="1"/><rect x="-37.5" width="450" fill="#ffffff" y="-37.499999" height="449.999989" fill-opacity="1"/><rect x="-37.5" width="450" fill="#ffffff" y="-37.499999" height="449.999989" fill-opacity="1"/><path fill="#65ccd8" d="M 328.125 54.6875 L 328.125 296.875 L 234.375 203.125 L 195.3125 242.1875 L 148.4375 195.3125 L 46.875 296.875 L 46.875 54.6875 C 46.875 54.175781 46.925781 53.667969 47.023438 53.164062 C 47.125 52.660156 47.273438 52.171875 47.46875 51.699219 C 47.664062 51.222656 47.90625 50.773438 48.191406 50.347656 C 48.476562 49.921875 48.800781 49.527344 49.164062 49.164062 C 49.527344 48.800781 49.921875 48.476562 50.347656 48.191406 C 50.773438 47.90625 51.222656 47.664062 51.699219 47.46875 C 52.171875 47.273438 52.660156 47.125 53.164062 47.023438 C 53.667969 46.925781 54.175781 46.875 54.6875 46.875 L 320.3125 46.875 C 320.824219 46.875 321.332031 46.925781 321.835938 47.023438 C 322.339844 47.125 322.828125 47.273438 323.300781 47.46875 C 323.777344 47.664062 324.226562 47.90625 324.652344 48.191406 C 325.078125 48.476562 325.472656 48.800781 325.835938 49.164062 C 326.199219 49.527344 326.523438 49.921875 326.808594 50.347656 C 327.09375 50.773438 327.335938 51.222656 327.53125 51.699219 C 327.726562 52.171875 327.875 52.660156 327.976562 53.164062 C 328.074219 53.667969 328.125 54.175781 328.125 54.6875 Z M 328.125 54.6875 " fill-opacity="1" fill-rule="nonzero"/><path fill="#f6b445" d="M 328.125 296.875 L 328.125 320.3125 C 328.125 320.824219 328.074219 321.332031 327.976562 321.835938 C 327.875 322.339844 327.726562 322.828125 327.53125 323.300781 C 327.335938 323.777344 327.09375 324.226562 326.808594 324.652344 C 326.523438 325.078125 326.199219 325.472656 325.835938 325.835938 C 325.472656 326.199219 325.078125 326.523438 324.652344 326.808594 C 324.226562 327.09375 323.777344 327.335938 323.300781 327.53125 C 322.828125 327.726562 322.339844 327.875 321.835938 327.976562 C 321.332031 328.074219 320.824219 328.125 320.3125 328.125 L 281.25 328.125 L 195.3125 242.1875 L 234.375 203.125 Z M 328.125 296.875 " fill-opacity="1" fill-rule="nonzero"/><path fill="#fed049" d="M 281.25 328.125 L 54.6875 328.125 C 54.175781 328.125 53.667969 328.074219 53.164062 327.976562 C 52.660156 327.875 52.171875 327.726562 51.699219 327.53125 C 51.222656 327.335938 50.773438 327.09375 50.347656 326.808594 C 49.921875 326.523438 49.527344 326.199219 49.164062 325.835938 C 48.800781 325.472656 48.476562 325.078125 48.191406 324.652344 C 47.90625 324.226562 47.664062 323.777344 47.46875 323.300781 C 47.273438 322.828125 47.125 322.339844 47.023438 321.835938 C 46.925781 321.332031 46.875 320.824219 46.875 320.3125 L 46.875 296.875 L 148.4375 195.3125 Z M 281.25 328.125 " fill-opacity="1" fill-rule="nonzero"/><path fill="#f1f2f2" d="M 46.875 320.3125 C 46.875 320.824219 46.925781 321.332031 47.023438 321.835938 C 47.125 322.339844 47.273438 322.828125 47.46875 323.300781 C 47.664062 323.777344 47.90625 324.226562 48.191406 324.652344 C 48.476562 325.078125 48.800781 325.472656 49.164062 325.835938 C 49.527344 326.199219 49.921875 326.523438 50.347656 326.808594 C 50.773438 327.09375 51.222656 327.335938 51.699219 327.53125 C 52.171875 327.726562 52.660156 327.875 53.164062 327.976562 C 53.667969 328.074219 54.175781 328.125 54.6875 328.125 L 320.3125 328.125 C 320.824219 328.125 321.332031 328.074219 321.835938 327.976562 C 322.339844 327.875 322.828125 327.726562 323.300781 327.53125 C 323.777344 327.335938 324.226562 327.09375 324.652344 326.808594 C 325.078125 326.523438 325.472656 326.199219 325.835938 325.835938 C 326.199219 325.472656 326.523438 325.078125 326.808594 324.652344 C 327.09375 324.226562 327.335938 323.777344 327.53125 323.300781 C 327.726562 322.828125 327.875 322.339844 327.976562 321.835938 C 328.074219 321.332031 328.125 320.824219 328.125 320.3125 L 328.125 54.6875 C 328.125 54.175781 328.074219 53.667969 327.976562 53.164062 C 327.875 52.660156 327.726562 52.171875 327.53125 51.699219 C 327.335938 51.222656 327.09375 50.773438 326.808594 50.347656 C 326.523438 49.921875 326.199219 49.527344 325.835938 49.164062 C 325.472656 48.800781 325.078125 48.476562 324.652344 48.191406 C 324.226562 47.90625 323.777344 47.664062 323.300781 47.46875 C 322.828125 47.273438 322.339844 47.125 321.835938 47.023438 C 321.332031 46.925781 320.824219 46.875 320.3125 46.875 L 54.6875 46.875 C 54.175781 46.875 53.667969 46.925781 53.164062 47.023438 C 52.660156 47.125 52.171875 47.273438 51.699219 47.46875 C 51.222656 47.664062 50.773438 47.90625 50.347656 48.191406 C 49.921875 48.476562 49.527344 48.800781 49.164062 49.164062 C 48.800781 49.527344 48.476562 49.921875 48.191406 50.347656 C 47.90625 50.773438 47.664062 51.222656 47.46875 51.699219 C 47.273438 52.171875 47.125 52.660156 47.023438 53.164062 C 46.925781 53.667969 46.875 54.175781 46.875 54.6875 Z M 367.1875 23.4375 L 367.1875 351.5625 C 367.183594 352.585938 367.082031 353.601562 366.878906 354.609375 C 366.675781 355.613281 366.378906 356.589844 365.984375 357.535156 C 365.59375 358.480469 365.109375 359.378906 364.539062 360.230469 C 363.96875 361.085938 363.320312 361.871094 362.597656 362.597656 C 361.871094 363.320312 361.085938 363.96875 360.230469 364.539062 C 359.378906 365.109375 358.480469 365.59375 357.535156 365.984375 C 356.589844 366.378906 355.613281 366.675781 354.609375 366.878906 C 353.601562 367.082031 352.585938 367.183594 351.5625 367.1875 L 23.4375 367.1875 C 22.414062 367.183594 21.398438 367.082031 20.390625 366.878906 C 19.386719 366.675781 18.410156 366.378906 17.464844 365.984375 C 16.519531 365.59375 15.621094 365.109375 14.769531 364.539062 C 13.914062 363.96875 13.128906 363.320312 12.402344 362.597656 C 11.679688 361.871094 11.03125 361.085938 10.460938 360.230469 C 9.890625 359.378906 9.40625 358.480469 9.015625 357.535156 C 8.621094 356.589844 8.324219 355.613281 8.121094 354.609375 C 7.917969 353.601562 7.816406 352.585938 7.8125 351.5625 L 7.8125 23.4375 C 7.816406 22.414062 7.917969 21.398438 8.121094 20.390625 C 8.324219 19.386719 8.621094 18.410156 9.015625 17.464844 C 9.40625 16.519531 9.890625 15.621094 10.460938 14.769531 C 11.03125 13.914062 11.679688 13.128906 12.402344 12.402344 C 13.128906 11.679688 13.914062 11.03125 14.769531 10.460938 C 15.621094 9.890625 16.519531 9.40625 17.464844 9.015625 C 18.410156 8.621094 19.386719 8.324219 20.390625 8.121094 C 21.398438 7.917969 22.414062 7.816406 23.4375 7.8125 L 351.5625 7.8125 C 352.585938 7.816406 353.601562 7.917969 354.609375 8.121094 C 355.613281 8.324219 356.589844 8.621094 357.535156 9.015625 C 358.480469 9.40625 359.378906 9.890625 360.230469 10.460938 C 361.085938 11.03125 361.871094 11.679688 362.597656 12.402344 C 363.320312 13.128906 363.96875 13.914062 364.539062 14.769531 C 365.109375 15.621094 365.59375 16.519531 365.984375 17.464844 C 366.378906 18.410156 366.675781 19.386719 366.878906 20.390625 C 367.082031 21.398438 367.183594 22.414062 367.1875 23.4375 Z M 367.1875 23.4375 " fill-opacity="1" fill-rule="nonzero"/><path fill="#f1f2f2" d="M 234.375 125 C 234.375 126.28125 234.3125 127.554688 234.1875 128.828125 C 234.0625 130.101562 233.875 131.367188 233.625 132.621094 C 233.375 133.875 233.0625 135.113281 232.691406 136.339844 C 232.320312 137.5625 231.890625 138.765625 231.402344 139.949219 C 230.910156 141.128906 230.367188 142.285156 229.761719 143.414062 C 229.160156 144.542969 228.503906 145.636719 227.792969 146.703125 C 227.082031 147.765625 226.320312 148.792969 225.507812 149.78125 C 224.695312 150.769531 223.839844 151.714844 222.933594 152.621094 C 222.027344 153.527344 221.082031 154.382812 220.09375 155.195312 C 219.105469 156.007812 218.078125 156.769531 217.015625 157.480469 C 215.949219 158.191406 214.855469 158.847656 213.726562 159.449219 C 212.597656 160.054688 211.441406 160.597656 210.261719 161.089844 C 209.078125 161.578125 207.875 162.007812 206.652344 162.378906 C 205.425781 162.75 204.1875 163.0625 202.933594 163.3125 C 201.679688 163.5625 200.414062 163.75 199.140625 163.875 C 197.867188 164 196.59375 164.0625 195.3125 164.0625 C 194.03125 164.0625 192.757812 164 191.484375 163.875 C 190.210938 163.75 188.945312 163.5625 187.691406 163.3125 C 186.4375 163.0625 185.199219 162.75 183.972656 162.378906 C 182.75 162.007812 181.546875 161.578125 180.363281 161.089844 C 179.183594 160.597656 178.027344 160.054688 176.898438 159.449219 C 175.769531 158.847656 174.675781 158.191406 173.609375 157.480469 C 172.546875 156.769531 171.519531 156.007812 170.53125 155.195312 C 169.542969 154.382812 168.597656 153.527344 167.691406 152.621094 C 166.785156 151.714844 165.929688 150.769531 165.117188 149.78125 C 164.304688 148.792969 163.542969 147.765625 162.832031 146.703125 C 162.121094 145.636719 161.464844 144.542969 160.863281 143.414062 C 160.257812 142.285156 159.714844 141.128906 159.222656 139.949219 C 158.734375 138.765625 158.304688 137.5625 157.933594 136.339844 C 157.5625 135.113281 157.25 133.875 157 132.621094 C 156.75 131.367188 156.5625 130.101562 156.4375 128.828125 C 156.3125 127.554688 156.25 126.28125 156.25 125 C 156.25 123.71875 156.3125 122.445312 156.4375 121.171875 C 156.5625 119.898438 156.75 118.632812 157 117.378906 C 157.25 116.125 157.5625 114.886719 157.933594 113.660156 C 158.304688 112.4375 158.734375 111.234375 159.222656 110.050781 C 159.714844 108.871094 160.257812 107.714844 160.863281 106.585938 C 161.464844 105.457031 162.121094 104.363281 162.832031 103.296875 C 163.542969 102.234375 164.304688 101.207031 165.117188 100.21875 C 165.929688 99.230469 166.785156 98.285156 167.691406 97.378906 C 168.597656 96.472656 169.542969 95.617188 170.53125 94.804688 C 171.519531 93.992188 172.546875 93.230469 173.609375 92.519531 C 174.675781 91.808594 175.769531 91.152344 176.898438 90.550781 C 178.027344 89.945312 179.183594 89.402344 180.363281 88.910156 C 181.546875 88.421875 182.75 87.992188 183.972656 87.621094 C 185.199219 87.25 186.4375 86.9375 187.691406 86.6875 C 188.945312 86.4375 190.210938 86.25 191.484375 86.125 C 192.757812 86 194.03125 85.9375 195.3125 85.9375 C 196.59375 85.9375 197.867188 86 199.140625 86.125 C 200.414062 86.25 201.679688 86.4375 202.933594 86.6875 C 204.1875 86.9375 205.425781 87.25 206.652344 87.621094 C 207.875 87.992188 209.078125 88.421875 210.261719 88.910156 C 211.441406 89.402344 212.597656 89.945312 213.726562 90.550781 C 214.855469 91.152344 215.949219 91.808594 217.015625 92.519531 C 218.078125 93.230469 219.105469 93.992188 220.09375 94.804688 C 221.082031 95.617188 222.027344 96.472656 222.933594 97.378906 C 223.839844 98.285156 224.695312 99.230469 225.507812 100.21875 C 226.320312 101.207031 227.082031 102.234375 227.792969 103.296875 C 228.503906 104.363281 229.160156 105.457031 229.761719 106.585938 C 230.367188 107.714844 230.910156 108.871094 231.402344 110.050781 C 231.890625 111.234375 232.320312 112.4375 232.691406 113.660156 C 233.0625 114.886719 233.375 116.125 233.625 117.378906 C 233.875 118.632812 234.0625 119.898438 234.1875 121.171875 C 234.3125 122.445312 234.375 123.71875 234.375 125 Z M 234.375 125 " fill-opacity="1" fill-rule="nonzero"/><path fill="#d0d7df" d="M 367.1875 242.1875 L 367.1875 351.5625 C 367.183594 352.585938 367.082031 353.601562 366.878906 354.609375 C 366.675781 355.613281 366.378906 356.589844 365.984375 357.535156 C 365.59375 358.480469 365.109375 359.378906 364.539062 360.230469 C 363.96875 361.085938 363.320312 361.871094 362.597656 362.597656 C 361.871094 363.320312 361.085938 363.96875 360.230469 364.539062 C 359.378906 365.109375 358.480469 365.59375 357.535156 365.984375 C 356.589844 366.378906 355.613281 366.675781 354.609375 366.878906 C 353.601562 367.082031 352.585938 367.183594 351.5625 367.1875 L 179.6875 367.1875 C 178.664062 367.183594 177.648438 367.082031 176.640625 366.878906 C 175.636719 366.675781 174.660156 366.378906 173.714844 365.984375 C 172.769531 365.59375 171.871094 365.109375 171.019531 364.539062 C 170.164062 363.96875 169.378906 363.320312 168.652344 362.597656 C 167.929688 361.871094 167.28125 361.085938 166.710938 360.230469 C 166.140625 359.378906 165.65625 358.480469 165.265625 357.535156 C 164.871094 356.589844 164.574219 355.613281 164.371094 354.609375 C 164.167969 353.601562 164.066406 352.585938 164.0625 351.5625 L 164.0625 242.1875 C 164.066406 241.164062 164.167969 240.148438 164.371094 239.140625 C 164.574219 238.136719 164.871094 237.160156 165.265625 236.214844 C 165.65625 235.269531 166.140625 234.371094 166.710938 233.519531 C 167.28125 232.664062 167.929688 231.878906 168.652344 231.152344 C 169.378906 230.429688 170.164062 229.78125 171.019531 229.210938 C 171.871094 228.640625 172.769531 228.15625 173.714844 227.765625 C 174.660156 227.371094 175.636719 227.074219 176.640625 226.871094 C 177.648438 226.667969 178.664062 226.566406 179.6875 226.5625 L 210.9375 226.5625 L 218.75 203.125 L 312.5 203.125 L 320.3125 226.5625 L 351.5625 226.5625 C 352.585938 226.566406 353.601562 226.667969 354.609375 226.871094 C 355.613281 227.074219 356.589844 227.371094 357.535156 227.765625 C 358.480469 228.15625 359.378906 228.640625 360.230469 229.210938 C 361.085938 229.78125 361.871094 230.429688 362.597656 231.152344 C 363.320312 231.878906 363.96875 232.664062 364.539062 233.519531 C 365.109375 234.371094 365.59375 235.269531 365.984375 236.214844 C 366.378906 237.160156 366.675781 238.136719 366.878906 239.140625 C 367.082031 240.148438 367.183594 241.164062 367.1875 242.1875 Z M 367.1875 242.1875 " fill-opacity="1" fill-rule="nonzero"/><path fill="#f1f2f2" d="M 304.6875 296.875 C 304.6875 298.15625 304.625 299.429688 304.5 300.703125 C 304.375 301.976562 304.1875 303.242188 303.9375 304.496094 C 303.6875 305.75 303.375 306.988281 303.003906 308.214844 C 302.632812 309.4375 302.203125 310.640625 301.714844 311.824219 C 301.222656 313.003906 300.679688 314.160156 300.074219 315.289062 C 299.472656 316.417969 298.816406 317.511719 298.105469 318.578125 C 297.394531 319.640625 296.632812 320.667969 295.820312 321.65625 C 295.007812 322.644531 294.152344 323.589844 293.246094 324.496094 C 292.339844 325.402344 291.394531 326.257812 290.40625 327.070312 C 289.417969 327.882812 288.390625 328.644531 287.328125 329.355469 C 286.261719 330.066406 285.167969 330.722656 284.039062 331.324219 C 282.910156 331.929688 281.753906 332.472656 280.574219 332.964844 C 279.390625 333.453125 278.1875 333.882812 276.964844 334.253906 C 275.738281 334.625 274.5 334.9375 273.246094 335.1875 C 271.992188 335.4375 270.726562 335.625 269.453125 335.75 C 268.179688 335.875 266.90625 335.9375 265.625 335.9375 C 264.34375 335.9375 263.070312 335.875 261.796875 335.75 C 260.523438 335.625 259.257812 335.4375 258.003906 335.1875 C 256.75 334.9375 255.511719 334.625 254.285156 334.253906 C 253.0625 333.882812 251.859375 333.453125 250.675781 332.964844 C 249.496094 332.472656 248.339844 331.929688 247.210938 331.324219 C 246.082031 330.722656 244.988281 330.066406 243.921875 329.355469 C 242.859375 328.644531 241.832031 327.882812 240.84375 327.070312 C 239.855469 326.257812 238.910156 325.402344 238.003906 324.496094 C 237.097656 323.589844 236.242188 322.644531 235.429688 321.65625 C 234.617188 320.667969 233.855469 319.640625 233.144531 318.578125 C 232.433594 317.511719 231.777344 316.417969 231.175781 315.289062 C 230.570312 314.160156 230.027344 313.003906 229.535156 311.824219 C 229.046875 310.640625 228.617188 309.4375 228.246094 308.214844 C 227.875 306.988281 227.5625 305.75 227.3125 304.496094 C 227.0625 303.242188 226.875 301.976562 226.75 300.703125 C 226.625 299.429688 226.5625 298.15625 226.5625 296.875 C 226.5625 295.59375 226.625 294.320312 226.75 293.046875 C 226.875 291.773438 227.0625 290.507812 227.3125 289.253906 C 227.5625 288 227.875 286.761719 228.246094 285.535156 C 228.617188 284.3125 229.046875 283.109375 229.535156 281.925781 C 230.027344 280.746094 230.570312 279.589844 231.175781 278.460938 C 231.777344 277.332031 232.433594 276.238281 233.144531 275.171875 C 233.855469 274.109375 234.617188 273.082031 235.429688 272.09375 C 236.242188 271.105469 237.097656 270.160156 238.003906 269.253906 C 238.910156 268.347656 239.855469 267.492188 240.84375 266.679688 C 241.832031 265.867188 242.859375 265.105469 243.921875 264.394531 C 244.988281 263.683594 246.082031 263.027344 247.210938 262.425781 C 248.339844 261.820312 249.496094 261.277344 250.675781 260.785156 C 251.859375 260.296875 253.0625 259.867188 254.285156 259.496094 C 255.511719 259.125 256.75 258.8125 258.003906 258.5625 C 259.257812 258.3125 260.523438 258.125 261.796875 258 C 263.070312 257.875 264.34375 257.8125 265.625 257.8125 C 266.90625 257.8125 268.179688 257.875 269.453125 258 C 270.726562 258.125 271.992188 258.3125 273.246094 258.5625 C 274.5 258.8125 275.738281 259.125 276.964844 259.496094 C 278.1875 259.867188 279.390625 260.296875 280.574219 260.785156 C 281.753906 261.277344 282.910156 261.820312 284.039062 262.425781 C 285.167969 263.027344 286.261719 263.683594 287.328125 264.394531 C 288.390625 265.105469 289.417969 265.867188 290.40625 266.679688 C 291.394531 267.492188 292.339844 268.347656 293.246094 269.253906 C 294.152344 270.160156 295.007812 271.105469 295.820312 272.09375 C 296.632812 273.082031 297.394531 274.109375 298.105469 275.171875 C 298.816406 276.238281 299.472656 277.332031 300.074219 278.460938 C 300.679688 279.589844 301.222656 280.746094 301.714844 281.925781 C 302.203125 283.109375 302.632812 284.3125 303.003906 285.535156 C 303.375 286.761719 303.6875 288 303.9375 289.253906 C 304.1875 290.507812 304.375 291.773438 304.5 293.046875 C 304.625 294.320312 304.6875 295.59375 304.6875 296.875 Z M 304.6875 296.875 " fill-opacity="1" fill-rule="nonzero"/><path fill="#474c54" d="M 351.5625 0 L 23.4375 0 C 22.667969 0 21.902344 0.0390625 21.140625 0.113281 C 20.375 0.1875 19.617188 0.300781 18.863281 0.449219 C 18.113281 0.601562 17.367188 0.785156 16.632812 1.007812 C 15.898438 1.230469 15.175781 1.492188 14.46875 1.785156 C 13.757812 2.078125 13.066406 2.40625 12.390625 2.765625 C 11.710938 3.128906 11.054688 3.523438 10.417969 3.949219 C 9.777344 4.375 9.164062 4.832031 8.570312 5.320312 C 7.976562 5.808594 7.40625 6.320312 6.863281 6.863281 C 6.320312 7.40625 5.808594 7.976562 5.320312 8.570312 C 4.832031 9.164062 4.375 9.777344 3.949219 10.417969 C 3.523438 11.054688 3.128906 11.710938 2.765625 12.390625 C 2.40625 13.066406 2.078125 13.757812 1.785156 14.46875 C 1.492188 15.175781 1.230469 15.898438 1.007812 16.632812 C 0.785156 17.367188 0.601562 18.113281 0.449219 18.863281 C 0.300781 19.617188 0.1875 20.375 0.113281 21.140625 C 0.0390625 21.902344 0 22.667969 0 23.4375 L 0 351.5625 C 0 352.332031 0.0390625 353.097656 0.113281 353.859375 C 0.1875 354.625 0.300781 355.382812 0.449219 356.136719 C 0.601562 356.886719 0.785156 357.632812 1.007812 358.367188 C 1.230469 359.101562 1.492188 359.824219 1.785156 360.53125 C 2.078125 361.242188 2.40625 361.933594 2.765625 362.609375 C 3.128906 363.289062 3.523438 363.945312 3.949219 364.582031 C 4.375 365.222656 4.832031 365.835938 5.320312 366.429688 C 5.808594 367.023438 6.320312 367.59375 6.863281 368.136719 C 7.40625 368.679688 7.976562 369.191406 8.570312 369.679688 C 9.164062 370.167969 9.777344 370.625 10.417969 371.050781 C 11.054688 371.476562 11.710938 371.871094 12.390625 372.234375 C 13.066406 372.59375 13.757812 372.921875 14.46875 373.214844 C 15.175781 373.507812 15.898438 373.769531 16.632812 373.992188 C 17.367188 374.214844 18.113281 374.398438 18.863281 374.550781 C 19.617188 374.699219 20.375 374.8125 21.140625 374.886719 C 21.902344 374.960938 22.667969 375 23.4375 375 L 132.8125 375 C 133.324219 375 133.832031 374.949219 134.335938 374.851562 C 134.839844 374.75 135.328125 374.601562 135.800781 374.40625 C 136.277344 374.207031 136.726562 373.96875 137.152344 373.683594 C 137.578125 373.398438 137.972656 373.074219 138.335938 372.710938 C 138.699219 372.347656 139.023438 371.953125 139.308594 371.527344 C 139.59375 371.101562 139.835938 370.652344 140.03125 370.175781 C 140.226562 369.703125 140.375 369.214844 140.476562 368.710938 C 140.574219 368.207031 140.625 367.699219 140.625 367.1875 C 140.625 366.675781 140.574219 366.167969 140.476562 365.664062 C 140.375 365.160156 140.226562 364.671875 140.03125 364.199219 C 139.835938 363.722656 139.59375 363.273438 139.308594 362.847656 C 139.023438 362.421875 138.699219 362.027344 138.335938 361.664062 C 137.972656 361.300781 137.578125 360.976562 137.152344 360.691406 C 136.726562 360.40625 136.277344 360.164062 135.800781 359.96875 C 135.328125 359.773438 134.839844 359.625 134.335938 359.523438 C 133.832031 359.425781 133.324219 359.375 132.8125 359.375 L 23.4375 359.375 C 22.925781 359.375 22.417969 359.324219 21.914062 359.226562 C 21.410156 359.125 20.921875 358.976562 20.449219 358.78125 C 19.972656 358.585938 19.523438 358.34375 19.097656 358.058594 C 18.671875 357.773438 18.277344 357.449219 17.914062 357.085938 C 17.550781 356.722656 17.226562 356.328125 16.941406 355.902344 C 16.65625 355.476562 16.414062 355.027344 16.21875 354.550781 C 16.023438 354.078125 15.875 353.589844 15.773438 353.085938 C 15.675781 352.582031 15.625 352.074219 15.625 351.5625 L 15.625 23.4375 C 15.625 22.925781 15.675781 22.417969 15.773438 21.914062 C 15.875 21.410156 16.023438 20.921875 16.21875 20.449219 C 16.414062 19.972656 16.65625 19.523438 16.941406 19.097656 C 17.226562 18.671875 17.550781 18.277344 17.914062 17.914062 C 18.277344 17.550781 18.671875 17.226562 19.097656 16.941406 C 19.523438 16.65625 19.972656 16.414062 20.449219 16.21875 C 20.921875 16.023438 21.410156 15.875 21.914062 15.773438 C 22.417969 15.675781 22.925781 15.625 23.4375 15.625 L 351.5625 15.625 C 352.074219 15.625 352.582031 15.675781 353.085938 15.773438 C 353.589844 15.875 354.078125 16.023438 354.550781 16.21875 C 355.027344 16.414062 355.476562 16.65625 355.902344 16.941406 C 356.328125 17.226562 356.722656 17.550781 357.085938 17.914062 C 357.449219 18.277344 357.773438 18.671875 358.058594 19.097656 C 358.34375 19.523438 358.585938 19.972656 358.78125 20.449219 C 358.976562 20.921875 359.125 21.410156 359.226562 21.914062 C 359.324219 22.417969 359.375 22.925781 359.375 23.4375 L 359.375 195.3125 C 359.375 195.824219 359.425781 196.332031 359.523438 196.835938 C 359.625 197.339844 359.773438 197.828125 359.96875 198.300781 C 360.164062 198.777344 360.40625 199.226562 360.691406 199.652344 C 360.976562 200.078125 361.300781 200.472656 361.664062 200.835938 C 362.027344 201.199219 362.421875 201.523438 362.847656 201.808594 C 363.273438 202.09375 363.722656 202.332031 364.199219 202.53125 C 364.671875 202.726562 365.160156 202.875 365.664062 202.976562 C 366.167969 203.074219 366.675781 203.125 367.1875 203.125 C 367.699219 203.125 368.207031 203.074219 368.710938 202.976562 C 369.214844 202.875 369.703125 202.726562 370.175781 202.53125 C 370.652344 202.332031 371.101562 202.09375 371.527344 201.808594 C 371.953125 201.523438 372.347656 201.199219 372.710938 200.835938 C 373.074219 200.472656 373.398438 200.078125 373.683594 199.652344 C 373.96875 199.226562 374.207031 198.777344 374.40625 198.300781 C 374.601562 197.828125 374.75 197.339844 374.851562 196.835938 C 374.949219 196.332031 375 195.824219 375 195.3125 L 375 23.4375 C 375 22.667969 374.960938 21.902344 374.886719 21.140625 C 374.8125 20.375 374.699219 19.617188 374.550781 18.863281 C 374.398438 18.113281 374.214844 17.367188 373.992188 16.632812 C 373.769531 15.898438 373.507812 15.175781 373.214844 14.46875 C 372.921875 13.757812 372.59375 13.066406 372.234375 12.390625 C 371.871094 11.710938 371.476562 11.054688 371.050781 10.417969 C 370.625 9.777344 370.167969 9.164062 369.679688 8.570312 C 369.191406 7.976562 368.679688 7.40625 368.136719 6.863281 C 367.59375 6.320312 367.023438 5.808594 366.429688 5.320312 C 365.835938 4.832031 365.222656 4.375 364.582031 3.949219 C 363.945312 3.523438 363.289062 3.128906 362.609375 2.765625 C 361.933594 2.40625 361.242188 2.078125 360.53125 1.785156 C 359.824219 1.492188 359.101562 1.230469 358.367188 1.007812 C 357.632812 0.785156 356.886719 0.601562 356.136719 0.449219 C 355.382812 0.300781 354.625 0.1875 353.859375 0.113281 C 353.097656 0.0390625 352.332031 0 351.5625 0 Z M 351.5625 0 " fill-opacity="1" fill-rule="nonzero"/><path fill="#474c54" d="M 328.125 179.6875 C 328.636719 179.6875 329.144531 179.636719 329.648438 179.539062 C 330.152344 179.4375 330.640625 179.289062 331.113281 179.09375 C 331.589844 178.898438 332.039062 178.65625 332.464844 178.371094 C 332.890625 178.085938 333.285156 177.761719 333.648438 177.398438 C 334.011719 177.035156 334.335938 176.640625 334.621094 176.214844 C 334.90625 175.789062 335.148438 175.339844 335.34375 174.863281 C 335.539062 174.390625 335.6875 173.902344 335.789062 173.398438 C 335.886719 172.894531 335.9375 172.386719 335.9375 171.875 L 335.9375 54.6875 C 335.9375 53.660156 335.835938 52.644531 335.636719 51.640625 C 335.4375 50.632812 335.140625 49.65625 334.75 48.707031 C 334.355469 47.761719 333.875 46.859375 333.304688 46.007812 C 332.734375 45.152344 332.085938 44.363281 331.359375 43.640625 C 330.636719 42.914062 329.847656 42.265625 328.992188 41.695312 C 328.140625 41.125 327.238281 40.644531 326.292969 40.25 C 325.34375 39.859375 324.367188 39.5625 323.359375 39.363281 C 322.355469 39.164062 321.339844 39.0625 320.3125 39.0625 L 54.6875 39.0625 C 53.660156 39.0625 52.644531 39.164062 51.640625 39.363281 C 50.632812 39.5625 49.65625 39.859375 48.707031 40.25 C 47.761719 40.644531 46.859375 41.125 46.007812 41.695312 C 45.152344 42.265625 44.363281 42.914062 43.640625 43.640625 C 42.914062 44.363281 42.265625 45.152344 41.695312 46.007812 C 41.125 46.859375 40.644531 47.761719 40.25 48.707031 C 39.859375 49.65625 39.5625 50.632812 39.363281 51.640625 C 39.164062 52.644531 39.0625 53.660156 39.0625 54.6875 L 39.0625 320.3125 C 39.0625 321.339844 39.164062 322.355469 39.363281 323.359375 C 39.5625 324.367188 39.859375 325.34375 40.25 326.292969 C 40.644531 327.238281 41.125 328.140625 41.695312 328.992188 C 42.265625 329.847656 42.914062 330.636719 43.640625 331.359375 C 44.363281 332.085938 45.152344 332.734375 46.007812 333.304688 C 46.859375 333.875 47.761719 334.355469 48.707031 334.75 C 49.65625 335.140625 50.632812 335.4375 51.640625 335.636719 C 52.644531 335.835938 53.660156 335.9375 54.6875 335.9375 L 125 335.9375 C 125.511719 335.9375 126.019531 335.886719 126.523438 335.789062 C 127.027344 335.6875 127.515625 335.539062 127.988281 335.34375 C 128.464844 335.148438 128.914062 334.90625 129.339844 334.621094 C 129.765625 334.335938 130.160156 334.011719 130.523438 333.648438 C 130.886719 333.285156 131.210938 332.890625 131.496094 332.464844 C 131.78125 332.039062 132.019531 331.589844 132.21875 331.113281 C 132.414062 330.640625 132.5625 330.152344 132.664062 329.648438 C 132.761719 329.144531 132.8125 328.636719 132.8125 328.125 C 132.8125 327.613281 132.761719 327.105469 132.664062 326.601562 C 132.5625 326.097656 132.414062 325.609375 132.21875 325.136719 C 132.019531 324.660156 131.78125 324.210938 131.496094 323.785156 C 131.210938 323.359375 130.886719 322.964844 130.523438 322.601562 C 130.160156 322.238281 129.765625 321.914062 129.339844 321.628906 C 128.914062 321.34375 128.464844 321.101562 127.988281 320.90625 C 127.515625 320.710938 127.027344 320.5625 126.523438 320.460938 C 126.019531 320.363281 125.511719 320.3125 125 320.3125 L 54.6875 320.3125 L 54.6875 54.6875 L 320.3125 54.6875 L 320.3125 171.875 C 320.3125 172.386719 320.363281 172.894531 320.460938 173.398438 C 320.5625 173.902344 320.710938 174.390625 320.90625 174.863281 C 321.101562 175.339844 321.34375 175.789062 321.628906 176.214844 C 321.914062 176.640625 322.238281 177.035156 322.601562 177.398438 C 322.964844 177.761719 323.359375 178.085938 323.785156 178.371094 C 324.210938 178.65625 324.660156 178.898438 325.136719 179.09375 C 325.609375 179.289062 326.097656 179.4375 326.601562 179.539062 C 327.105469 179.636719 327.613281 179.6875 328.125 179.6875 Z M 328.125 179.6875 " fill-opacity="1" fill-rule="nonzero"/><path fill="#474c54" d="M 153.960938 189.789062 C 153.597656 189.425781 153.203125 189.101562 152.777344 188.816406 C 152.351562 188.53125 151.902344 188.292969 151.425781 188.097656 C 150.953125 187.898438 150.464844 187.75 149.960938 187.652344 C 149.457031 187.550781 148.949219 187.5 148.4375 187.5 C 147.925781 187.5 147.417969 187.550781 146.914062 187.652344 C 146.410156 187.75 145.921875 187.898438 145.449219 188.097656 C 144.972656 188.292969 144.523438 188.53125 144.097656 188.816406 C 143.671875 189.101562 143.277344 189.425781 142.914062 189.789062 L 72.601562 260.101562 C 72.226562 260.460938 71.894531 260.855469 71.601562 261.28125 C 71.304688 261.710938 71.054688 262.160156 70.851562 262.636719 C 70.644531 263.113281 70.492188 263.605469 70.382812 264.113281 C 70.277344 264.621094 70.222656 265.132812 70.21875 265.652344 C 70.210938 266.171875 70.257812 266.6875 70.355469 267.195312 C 70.453125 267.703125 70.601562 268.199219 70.796875 268.679688 C 70.996094 269.160156 71.238281 269.617188 71.523438 270.046875 C 71.8125 270.480469 72.136719 270.878906 72.503906 271.246094 C 72.871094 271.613281 73.269531 271.9375 73.703125 272.226562 C 74.132812 272.511719 74.589844 272.753906 75.070312 272.953125 C 75.550781 273.148438 76.046875 273.296875 76.554688 273.394531 C 77.0625 273.492188 77.578125 273.539062 78.097656 273.53125 C 78.617188 273.527344 79.128906 273.472656 79.636719 273.367188 C 80.144531 273.257812 80.636719 273.105469 81.113281 272.898438 C 81.589844 272.695312 82.039062 272.445312 82.46875 272.148438 C 82.894531 271.855469 83.289062 271.523438 83.648438 271.148438 L 153.960938 200.835938 C 154.324219 200.472656 154.648438 200.078125 154.933594 199.652344 C 155.21875 199.226562 155.457031 198.777344 155.652344 198.300781 C 155.851562 197.828125 156 197.339844 156.097656 196.835938 C 156.199219 196.332031 156.25 195.824219 156.25 195.3125 C 156.25 194.800781 156.199219 194.292969 156.097656 193.789062 C 156 193.285156 155.851562 192.796875 155.652344 192.324219 C 155.457031 191.847656 155.21875 191.398438 154.933594 190.972656 C 154.648438 190.546875 154.324219 190.152344 153.960938 189.789062 Z M 153.960938 189.789062 " fill-opacity="1" fill-rule="nonzero"/><path fill="#474c54" d="M 148.4375 125 C 148.4375 126.535156 148.511719 128.066406 148.664062 129.59375 C 148.8125 131.121094 149.039062 132.640625 149.339844 134.144531 C 149.636719 135.652344 150.011719 137.136719 150.457031 138.605469 C 150.902344 140.078125 151.417969 141.519531 152.003906 142.9375 C 152.59375 144.355469 153.25 145.742188 153.972656 147.097656 C 154.695312 148.449219 155.484375 149.765625 156.335938 151.042969 C 157.191406 152.320312 158.105469 153.550781 159.078125 154.738281 C 160.050781 155.925781 161.082031 157.058594 162.167969 158.144531 C 163.253906 159.230469 164.386719 160.261719 165.574219 161.234375 C 166.761719 162.207031 167.992188 163.121094 169.269531 163.976562 C 170.546875 164.828125 171.863281 165.617188 173.214844 166.339844 C 174.570312 167.0625 175.957031 167.71875 177.375 168.308594 C 178.792969 168.894531 180.234375 169.410156 181.707031 169.855469 C 183.175781 170.300781 184.660156 170.675781 186.167969 170.972656 C 187.671875 171.273438 189.191406 171.5 190.71875 171.648438 C 192.246094 171.800781 193.777344 171.875 195.3125 171.875 C 196.847656 171.875 198.378906 171.800781 199.90625 171.648438 C 201.433594 171.5 202.953125 171.273438 204.457031 170.972656 C 205.964844 170.675781 207.449219 170.300781 208.917969 169.855469 C 210.390625 169.410156 211.832031 168.894531 213.25 168.308594 C 214.667969 167.71875 216.054688 167.0625 217.410156 166.339844 C 218.761719 165.617188 220.078125 164.828125 221.355469 163.976562 C 222.632812 163.121094 223.863281 162.207031 225.050781 161.234375 C 226.238281 160.261719 227.371094 159.230469 228.457031 158.144531 C 229.542969 157.058594 230.574219 155.925781 231.546875 154.738281 C 232.519531 153.550781 233.433594 152.320312 234.289062 151.042969 C 235.140625 149.765625 235.929688 148.449219 236.652344 147.097656 C 237.375 145.742188 238.03125 144.355469 238.621094 142.9375 C 239.207031 141.519531 239.722656 140.078125 240.167969 138.605469 C 240.613281 137.136719 240.988281 135.652344 241.285156 134.144531 C 241.585938 132.640625 241.8125 131.121094 241.960938 129.59375 C 242.113281 128.066406 242.1875 126.535156 242.1875 125 C 242.1875 123.464844 242.113281 121.933594 241.960938 120.40625 C 241.8125 118.878906 241.585938 117.359375 241.285156 115.855469 C 240.988281 114.347656 240.613281 112.863281 240.167969 111.394531 C 239.722656 109.921875 239.207031 108.480469 238.621094 107.0625 C 238.03125 105.644531 237.375 104.257812 236.652344 102.902344 C 235.929688 101.550781 235.140625 100.234375 234.289062 98.957031 C 233.433594 97.679688 232.519531 96.449219 231.546875 95.261719 C 230.574219 94.074219 229.542969 92.941406 228.457031 91.855469 C 227.371094 90.769531 226.238281 89.738281 225.050781 88.765625 C 223.863281 87.792969 222.632812 86.878906 221.355469 86.023438 C 220.078125 85.171875 218.761719 84.382812 217.410156 83.660156 C 216.054688 82.9375 214.667969 82.28125 213.25 81.691406 C 211.832031 81.105469 210.390625 80.589844 208.917969 80.144531 C 207.449219 79.699219 205.964844 79.324219 204.457031 79.027344 C 202.953125 78.726562 201.433594 78.5 199.90625 78.351562 C 198.378906 78.199219 196.847656 78.125 195.3125 78.125 C 193.777344 78.125 192.246094 78.203125 190.71875 78.355469 C 189.191406 78.507812 187.675781 78.734375 186.171875 79.035156 C 184.664062 79.332031 183.179688 79.707031 181.710938 80.152344 C 180.242188 80.601562 178.800781 81.117188 177.382812 81.707031 C 175.964844 82.292969 174.578125 82.949219 173.226562 83.671875 C 171.871094 84.398438 170.558594 85.1875 169.28125 86.039062 C 168.003906 86.890625 166.773438 87.804688 165.589844 88.78125 C 164.402344 89.753906 163.265625 90.78125 162.179688 91.867188 C 161.09375 92.953125 160.066406 94.089844 159.09375 95.277344 C 158.117188 96.460938 157.203125 97.691406 156.351562 98.96875 C 155.5 100.246094 154.710938 101.558594 153.984375 102.914062 C 153.261719 104.265625 152.605469 105.652344 152.019531 107.070312 C 151.429688 108.488281 150.914062 109.929688 150.464844 111.398438 C 150.019531 112.867188 149.644531 114.351562 149.347656 115.859375 C 149.046875 117.363281 148.820312 118.878906 148.667969 120.40625 C 148.515625 121.933594 148.4375 123.464844 148.4375 125 Z M 226.5625 125 C 226.5625 126.023438 226.511719 127.042969 226.410156 128.0625 C 226.3125 129.082031 226.160156 130.09375 225.960938 131.097656 C 225.761719 132.101562 225.515625 133.09375 225.21875 134.070312 C 224.917969 135.050781 224.574219 136.011719 224.183594 136.957031 C 223.792969 137.90625 223.355469 138.828125 222.871094 139.730469 C 222.390625 140.632812 221.863281 141.511719 221.296875 142.363281 C 220.726562 143.210938 220.117188 144.035156 219.46875 144.824219 C 218.820312 145.617188 218.132812 146.375 217.410156 147.097656 C 216.6875 147.820312 215.929688 148.507812 215.136719 149.15625 C 214.347656 149.804688 213.523438 150.414062 212.675781 150.984375 C 211.824219 151.550781 210.945312 152.078125 210.042969 152.558594 C 209.140625 153.042969 208.21875 153.480469 207.269531 153.871094 C 206.324219 154.261719 205.363281 154.605469 204.382812 154.90625 C 203.40625 155.203125 202.414062 155.449219 201.410156 155.648438 C 200.40625 155.847656 199.394531 156 198.375 156.097656 C 197.355469 156.199219 196.335938 156.25 195.3125 156.25 C 194.289062 156.25 193.269531 156.199219 192.25 156.097656 C 191.230469 156 190.21875 155.847656 189.214844 155.648438 C 188.210938 155.449219 187.21875 155.203125 186.242188 154.90625 C 185.261719 154.605469 184.300781 154.261719 183.355469 153.871094 C 182.40625 153.480469 181.484375 153.042969 180.582031 152.558594 C 179.679688 152.078125 178.800781 151.550781 177.949219 150.984375 C 177.101562 150.414062 176.277344 149.804688 175.488281 149.15625 C 174.695312 148.507812 173.9375 147.820312 173.214844 147.097656 C 172.492188 146.375 171.804688 145.617188 171.15625 144.824219 C 170.507812 144.035156 169.898438 143.210938 169.328125 142.363281 C 168.761719 141.511719 168.234375 140.632812 167.753906 139.730469 C 167.269531 138.828125 166.832031 137.90625 166.441406 136.957031 C 166.050781 136.011719 165.707031 135.050781 165.40625 134.070312 C 165.109375 133.09375 164.863281 132.101562 164.664062 131.097656 C 164.464844 130.09375 164.3125 129.082031 164.214844 128.0625 C 164.113281 127.042969 164.0625 126.023438 164.0625 125 C 164.0625 123.976562 164.113281 122.957031 164.214844 121.9375 C 164.3125 120.917969 164.464844 119.90625 164.664062 118.902344 C 164.863281 117.898438 165.109375 116.90625 165.40625 115.929688 C 165.707031 114.949219 166.050781 113.988281 166.441406 113.042969 C 166.832031 112.09375 167.269531 111.171875 167.753906 110.269531 C 168.234375 109.367188 168.761719 108.488281 169.328125 107.636719 C 169.898438 106.789062 170.507812 105.964844 171.15625 105.175781 C 171.804688 104.382812 172.492188 103.625 173.214844 102.902344 C 173.9375 102.179688 174.695312 101.492188 175.488281 100.84375 C 176.277344 100.195312 177.101562 99.585938 177.949219 99.015625 C 178.800781 98.449219 179.679688 97.921875 180.582031 97.441406 C 181.484375 96.957031 182.40625 96.519531 183.355469 96.128906 C 184.300781 95.738281 185.261719 95.394531 186.242188 95.09375 C 187.21875 94.796875 188.210938 94.550781 189.214844 94.351562 C 190.21875 94.152344 191.230469 94 192.25 93.902344 C 193.269531 93.800781 194.289062 93.75 195.3125 93.75 C 196.335938 93.75 197.355469 93.800781 198.375 93.902344 C 199.394531 94 200.40625 94.152344 201.410156 94.351562 C 202.414062 94.550781 203.40625 94.796875 204.382812 95.09375 C 205.363281 95.394531 206.324219 95.738281 207.269531 96.128906 C 208.21875 96.519531 209.140625 96.957031 210.042969 97.441406 C 210.945312 97.921875 211.824219 98.449219 212.675781 99.015625 C 213.523438 99.585938 214.347656 100.195312 215.136719 100.84375 C 215.929688 101.492188 216.6875 102.179688 217.410156 102.902344 C 218.132812 103.625 218.820312 104.382812 219.46875 105.175781 C 220.117188 105.964844 220.726562 106.789062 221.296875 107.636719 C 221.863281 108.488281 222.390625 109.367188 222.871094 110.269531 C 223.355469 111.171875 223.792969 112.09375 224.183594 113.042969 C 224.574219 113.988281 224.917969 114.949219 225.21875 115.929688 C 225.515625 116.90625 225.761719 117.898438 225.960938 118.902344 C 226.160156 119.90625 226.3125 120.917969 226.410156 121.9375 C 226.511719 122.957031 226.5625 123.976562 226.5625 125 Z M 226.5625 125 " fill-opacity="1" fill-rule="nonzero"/><path fill="#474c54" d="M 351.5625 218.75 L 325.945312 218.75 L 319.914062 200.65625 C 319.65625 199.878906 319.28125 199.160156 318.796875 198.5 C 318.3125 197.835938 317.734375 197.265625 317.070312 196.789062 C 316.40625 196.308594 315.683594 195.941406 314.902344 195.691406 C 314.121094 195.4375 313.320312 195.3125 312.5 195.3125 L 218.75 195.3125 C 217.929688 195.3125 217.128906 195.4375 216.347656 195.691406 C 215.570312 195.941406 214.84375 196.308594 214.179688 196.789062 C 213.515625 197.265625 212.9375 197.835938 212.453125 198.496094 C 211.96875 199.160156 211.59375 199.878906 211.335938 200.65625 L 205.304688 218.75 L 179.6875 218.75 C 178.917969 218.75 178.152344 218.789062 177.390625 218.863281 C 176.625 218.9375 175.867188 219.050781 175.113281 219.199219 C 174.363281 219.351562 173.617188 219.535156 172.882812 219.757812 C 172.148438 219.980469 171.425781 220.242188 170.71875 220.535156 C 170.007812 220.828125 169.316406 221.15625 168.640625 221.515625 C 167.960938 221.878906 167.304688 222.273438 166.667969 222.699219 C 166.027344 223.125 165.414062 223.582031 164.820312 224.070312 C 164.226562 224.558594 163.65625 225.070312 163.113281 225.613281 C 162.570312 226.15625 162.058594 226.726562 161.570312 227.320312 C 161.082031 227.914062 160.625 228.527344 160.199219 229.167969 C 159.773438 229.804688 159.378906 230.460938 159.015625 231.140625 C 158.65625 231.816406 158.328125 232.507812 158.035156 233.21875 C 157.742188 233.925781 157.480469 234.648438 157.257812 235.382812 C 157.035156 236.117188 156.851562 236.863281 156.699219 237.613281 C 156.550781 238.367188 156.4375 239.125 156.363281 239.890625 C 156.289062 240.652344 156.25 241.417969 156.25 242.1875 L 156.25 351.5625 C 156.25 352.332031 156.289062 353.097656 156.363281 353.859375 C 156.4375 354.625 156.550781 355.382812 156.699219 356.136719 C 156.851562 356.886719 157.035156 357.632812 157.257812 358.367188 C 157.480469 359.101562 157.742188 359.824219 158.035156 360.53125 C 158.328125 361.242188 158.65625 361.933594 159.015625 362.609375 C 159.378906 363.289062 159.773438 363.945312 160.199219 364.582031 C 160.625 365.222656 161.082031 365.835938 161.570312 366.429688 C 162.058594 367.023438 162.570312 367.59375 163.113281 368.136719 C 163.65625 368.679688 164.226562 369.191406 164.820312 369.679688 C 165.414062 370.167969 166.027344 370.625 166.667969 371.050781 C 167.304688 371.476562 167.960938 371.871094 168.640625 372.234375 C 169.316406 372.59375 170.007812 372.921875 170.71875 373.214844 C 171.425781 373.507812 172.148438 373.769531 172.882812 373.992188 C 173.617188 374.214844 174.363281 374.398438 175.113281 374.550781 C 175.867188 374.699219 176.625 374.8125 177.390625 374.886719 C 178.152344 374.960938 178.917969 375 179.6875 375 L 351.5625 375 C 352.332031 375 353.097656 374.960938 353.859375 374.886719 C 354.625 374.8125 355.382812 374.699219 356.136719 374.550781 C 356.886719 374.398438 357.632812 374.214844 358.367188 373.992188 C 359.101562 373.769531 359.824219 373.507812 360.53125 373.214844 C 361.242188 372.921875 361.933594 372.59375 362.609375 372.234375 C 363.289062 371.871094 363.945312 371.476562 364.582031 371.050781 C 365.222656 370.625 365.835938 370.167969 366.429688 369.679688 C 367.023438 369.191406 367.59375 368.679688 368.136719 368.136719 C 368.679688 367.59375 369.191406 367.023438 369.679688 366.429688 C 370.167969 365.835938 370.625 365.222656 371.050781 364.582031 C 371.476562 363.945312 371.871094 363.289062 372.234375 362.609375 C 372.59375 361.933594 372.921875 361.242188 373.214844 360.53125 C 373.507812 359.824219 373.769531 359.101562 373.992188 358.367188 C 374.214844 357.632812 374.398438 356.886719 374.550781 356.136719 C 374.699219 355.382812 374.8125 354.625 374.886719 353.859375 C 374.960938 353.097656 375 352.332031 375 351.5625 L 375 242.1875 C 375 241.417969 374.960938 240.652344 374.886719 239.890625 C 374.8125 239.125 374.699219 238.367188 374.550781 237.613281 C 374.398438 236.863281 374.214844 236.117188 373.992188 235.382812 C 373.769531 234.648438 373.507812 233.925781 373.214844 233.21875 C 372.921875 232.507812 372.59375 231.816406 372.234375 231.140625 C 371.871094 230.460938 371.476562 229.804688 371.050781 229.167969 C 370.625 228.527344 370.167969 227.914062 369.679688 227.320312 C 369.191406 226.726562 368.679688 226.15625 368.136719 225.613281 C 367.59375 225.070312 367.023438 224.558594 366.429688 224.070312 C 365.835938 223.582031 365.222656 223.125 364.582031 222.699219 C 363.945312 222.273438 363.289062 221.878906 362.609375 221.515625 C 361.933594 221.15625 361.242188 220.828125 360.53125 220.535156 C 359.824219 220.242188 359.101562 219.980469 358.367188 219.757812 C 357.632812 219.535156 356.886719 219.351562 356.136719 219.199219 C 355.382812 219.050781 354.625 218.9375 353.859375 218.863281 C 353.097656 218.789062 352.332031 218.75 351.5625 218.75 Z M 359.375 351.5625 C 359.375 352.074219 359.324219 352.582031 359.226562 353.085938 C 359.125 353.589844 358.976562 354.078125 358.78125 354.550781 C 358.585938 355.027344 358.34375 355.476562 358.058594 355.902344 C 357.773438 356.328125 357.449219 356.722656 357.085938 357.085938 C 356.722656 357.449219 356.328125 357.773438 355.902344 358.058594 C 355.476562 358.34375 355.027344 358.585938 354.550781 358.78125 C 354.078125 358.976562 353.589844 359.125 353.085938 359.226562 C 352.582031 359.324219 352.074219 359.375 351.5625 359.375 L 179.6875 359.375 C 179.175781 359.375 178.667969 359.324219 178.164062 359.226562 C 177.660156 359.125 177.171875 358.976562 176.699219 358.78125 C 176.222656 358.585938 175.773438 358.34375 175.347656 358.058594 C 174.921875 357.773438 174.527344 357.449219 174.164062 357.085938 C 173.800781 356.722656 173.476562 356.328125 173.191406 355.902344 C 172.90625 355.476562 172.664062 355.027344 172.46875 354.550781 C 172.273438 354.078125 172.125 353.589844 172.023438 353.085938 C 171.925781 352.582031 171.875 352.074219 171.875 351.5625 L 171.875 242.1875 C 171.875 241.675781 171.925781 241.167969 172.023438 240.664062 C 172.125 240.160156 172.273438 239.671875 172.46875 239.199219 C 172.664062 238.722656 172.90625 238.273438 173.191406 237.847656 C 173.476562 237.421875 173.800781 237.027344 174.164062 236.664062 C 174.527344 236.300781 174.921875 235.976562 175.347656 235.691406 C 175.773438 235.40625 176.222656 235.164062 176.699219 234.96875 C 177.171875 234.773438 177.660156 234.625 178.164062 234.523438 C 178.667969 234.425781 179.175781 234.375 179.6875 234.375 L 210.9375 234.375 C 211.757812 234.375 212.558594 234.25 213.339844 233.996094 C 214.121094 233.746094 214.84375 233.378906 215.507812 232.898438 C 216.171875 232.421875 216.75 231.851562 217.234375 231.191406 C 217.71875 230.527344 218.09375 229.808594 218.351562 229.03125 L 224.382812 210.9375 L 306.867188 210.9375 L 312.898438 229.03125 C 313.15625 229.808594 313.53125 230.527344 314.015625 231.1875 C 314.5 231.851562 315.078125 232.421875 315.742188 232.898438 C 316.40625 233.378906 317.128906 233.746094 317.910156 233.996094 C 318.691406 234.25 319.492188 234.375 320.3125 234.375 L 351.5625 234.375 C 352.074219 234.375 352.582031 234.425781 353.085938 234.523438 C 353.589844 234.625 354.078125 234.773438 354.550781 234.96875 C 355.027344 235.164062 355.476562 235.40625 355.902344 235.691406 C 356.328125 235.976562 356.722656 236.300781 357.085938 236.664062 C 357.449219 237.027344 357.773438 237.421875 358.058594 237.847656 C 358.34375 238.273438 358.585938 238.722656 358.78125 239.199219 C 358.976562 239.671875 359.125 240.160156 359.226562 240.664062 C 359.324219 241.167969 359.375 241.675781 359.375 242.1875 Z M 359.375 351.5625 " fill-opacity="1" fill-rule="nonzero"/><path fill="#474c54" d="M 265.625 250 C 264.089844 250 262.558594 250.074219 261.03125 250.226562 C 259.503906 250.375 257.984375 250.601562 256.480469 250.902344 C 254.972656 251.199219 253.488281 251.574219 252.019531 252.019531 C 250.546875 252.464844 249.105469 252.980469 247.6875 253.566406 C 246.269531 254.15625 244.882812 254.8125 243.527344 255.535156 C 242.175781 256.257812 240.859375 257.046875 239.582031 257.898438 C 238.304688 258.753906 237.074219 259.667969 235.886719 260.640625 C 234.699219 261.613281 233.566406 262.644531 232.480469 263.730469 C 231.394531 264.816406 230.363281 265.949219 229.390625 267.136719 C 228.417969 268.324219 227.503906 269.554688 226.648438 270.832031 C 225.796875 272.109375 225.007812 273.425781 224.285156 274.777344 C 223.5625 276.132812 222.90625 277.519531 222.316406 278.9375 C 221.730469 280.355469 221.214844 281.796875 220.769531 283.269531 C 220.324219 284.738281 219.949219 286.222656 219.652344 287.730469 C 219.351562 289.234375 219.125 290.753906 218.976562 292.28125 C 218.824219 293.808594 218.75 295.339844 218.75 296.875 C 218.75 298.410156 218.824219 299.941406 218.976562 301.46875 C 219.125 302.996094 219.351562 304.515625 219.652344 306.019531 C 219.949219 307.527344 220.324219 309.011719 220.769531 310.480469 C 221.214844 311.953125 221.730469 313.394531 222.316406 314.8125 C 222.90625 316.230469 223.5625 317.617188 224.285156 318.972656 C 225.007812 320.324219 225.796875 321.640625 226.648438 322.917969 C 227.503906 324.195312 228.417969 325.425781 229.390625 326.613281 C 230.363281 327.800781 231.394531 328.933594 232.480469 330.019531 C 233.566406 331.105469 234.699219 332.136719 235.886719 333.109375 C 237.074219 334.082031 238.304688 334.996094 239.582031 335.851562 C 240.859375 336.703125 242.175781 337.492188 243.527344 338.214844 C 244.882812 338.9375 246.269531 339.59375 247.6875 340.183594 C 249.105469 340.769531 250.546875 341.285156 252.019531 341.730469 C 253.488281 342.175781 254.972656 342.550781 256.480469 342.847656 C 257.984375 343.148438 259.503906 343.375 261.03125 343.523438 C 262.558594 343.675781 264.089844 343.75 265.625 343.75 C 267.160156 343.75 268.691406 343.675781 270.21875 343.523438 C 271.746094 343.375 273.265625 343.148438 274.769531 342.847656 C 276.277344 342.550781 277.761719 342.175781 279.230469 341.730469 C 280.703125 341.285156 282.144531 340.769531 283.5625 340.183594 C 284.980469 339.59375 286.367188 338.9375 287.722656 338.214844 C 289.074219 337.492188 290.390625 336.703125 291.667969 335.851562 C 292.945312 334.996094 294.175781 334.082031 295.363281 333.109375 C 296.550781 332.136719 297.683594 331.105469 298.769531 330.019531 C 299.855469 328.933594 300.886719 327.800781 301.859375 326.613281 C 302.832031 325.425781 303.746094 324.195312 304.601562 322.917969 C 305.453125 321.640625 306.242188 320.324219 306.964844 318.972656 C 307.6875 317.617188 308.34375 316.230469 308.933594 314.8125 C 309.519531 313.394531 310.035156 311.953125 310.480469 310.480469 C 310.925781 309.011719 311.300781 307.527344 311.597656 306.019531 C 311.898438 304.515625 312.125 302.996094 312.273438 301.46875 C 312.425781 299.941406 312.5 298.410156 312.5 296.875 C 312.5 295.339844 312.421875 293.808594 312.269531 292.28125 C 312.117188 290.753906 311.890625 289.238281 311.589844 287.734375 C 311.292969 286.226562 310.917969 284.742188 310.472656 283.273438 C 310.023438 281.804688 309.507812 280.363281 308.917969 278.945312 C 308.332031 277.527344 307.675781 276.140625 306.953125 274.789062 C 306.226562 273.433594 305.4375 272.121094 304.585938 270.84375 C 303.734375 269.566406 302.820312 268.335938 301.84375 267.152344 C 300.871094 265.964844 299.84375 264.828125 298.757812 263.742188 C 297.671875 262.65625 296.535156 261.628906 295.351562 260.65625 C 294.164062 259.679688 292.933594 258.765625 291.65625 257.914062 C 290.378906 257.0625 289.066406 256.273438 287.710938 255.546875 C 286.359375 254.824219 284.972656 254.167969 283.554688 253.582031 C 282.136719 252.992188 280.695312 252.476562 279.226562 252.027344 C 277.757812 251.582031 276.273438 251.210938 274.765625 250.910156 C 273.261719 250.609375 271.746094 250.382812 270.21875 250.230469 C 268.691406 250.078125 267.160156 250 265.625 250 Z M 265.625 328.125 C 264.601562 328.125 263.582031 328.074219 262.5625 327.972656 C 261.542969 327.875 260.53125 327.722656 259.527344 327.523438 C 258.523438 327.324219 257.53125 327.078125 256.554688 326.78125 C 255.574219 326.480469 254.613281 326.136719 253.667969 325.746094 C 252.71875 325.355469 251.796875 324.917969 250.894531 324.433594 C 249.992188 323.953125 249.113281 323.425781 248.261719 322.859375 C 247.414062 322.289062 246.589844 321.679688 245.800781 321.03125 C 245.007812 320.382812 244.25 319.695312 243.527344 318.972656 C 242.804688 318.25 242.117188 317.492188 241.46875 316.699219 C 240.820312 315.910156 240.210938 315.085938 239.640625 314.238281 C 239.074219 313.386719 238.546875 312.507812 238.066406 311.605469 C 237.582031 310.703125 237.144531 309.78125 236.753906 308.832031 C 236.363281 307.886719 236.019531 306.925781 235.71875 305.945312 C 235.421875 304.96875 235.175781 303.976562 234.976562 302.972656 C 234.777344 301.96875 234.625 300.957031 234.527344 299.9375 C 234.425781 298.917969 234.375 297.898438 234.375 296.875 C 234.375 295.851562 234.425781 294.832031 234.527344 293.8125 C 234.625 292.792969 234.777344 291.78125 234.976562 290.777344 C 235.175781 289.773438 235.421875 288.78125 235.71875 287.804688 C 236.019531 286.824219 236.363281 285.863281 236.753906 284.917969 C 237.144531 283.96875 237.582031 283.046875 238.066406 282.144531 C 238.546875 281.242188 239.074219 280.363281 239.640625 279.511719 C 240.210938 278.664062 240.820312 277.839844 241.46875 277.050781 C 242.117188 276.257812 242.804688 275.5 243.527344 274.777344 C 244.25 274.054688 245.007812 273.367188 245.800781 272.71875 C 246.589844 272.070312 247.414062 271.460938 248.261719 270.890625 C 249.113281 270.324219 249.992188 269.796875 250.894531 269.316406 C 251.796875 268.832031 252.71875 268.394531 253.667969 268.003906 C 254.613281 267.613281 255.574219 267.269531 256.554688 266.96875 C 257.53125 266.671875 258.523438 266.425781 259.527344 266.226562 C 260.53125 266.027344 261.542969 265.875 262.5625 265.777344 C 263.582031 265.675781 264.601562 265.625 265.625 265.625 C 266.648438 265.625 267.667969 265.675781 268.6875 265.777344 C 269.707031 265.875 270.71875 266.027344 271.722656 266.226562 C 272.726562 266.425781 273.71875 266.671875 274.695312 266.96875 C 275.675781 267.269531 276.636719 267.613281 277.582031 268.003906 C 278.53125 268.394531 279.453125 268.832031 280.355469 269.316406 C 281.257812 269.796875 282.136719 270.324219 282.988281 270.890625 C 283.835938 271.460938 284.660156 272.070312 285.449219 272.71875 C 286.242188 273.367188 287 274.054688 287.722656 274.777344 C 288.445312 275.5 289.132812 276.257812 289.78125 277.050781 C 290.429688 277.839844 291.039062 278.664062 291.609375 279.511719 C 292.175781 280.363281 292.703125 281.242188 293.183594 282.144531 C 293.667969 283.046875 294.105469 283.96875 294.496094 284.917969 C 294.886719 285.863281 295.230469 286.824219 295.53125 287.804688 C 295.828125 288.78125 296.074219 289.773438 296.273438 290.777344 C 296.472656 291.78125 296.625 292.792969 296.722656 293.8125 C 296.824219 294.832031 296.875 295.851562 296.875 296.875 C 296.875 297.898438 296.824219 298.917969 296.722656 299.9375 C 296.625 300.957031 296.472656 301.96875 296.273438 302.972656 C 296.074219 303.976562 295.828125 304.96875 295.53125 305.945312 C 295.230469 306.925781 294.886719 307.886719 294.496094 308.832031 C 294.105469 309.78125 293.667969 310.703125 293.183594 311.605469 C 292.703125 312.507812 292.175781 313.386719 291.609375 314.238281 C 291.039062 315.085938 290.429688 315.910156 289.78125 316.699219 C 289.132812 317.492188 288.445312 318.25 287.722656 318.972656 C 287 319.695312 286.242188 320.382812 285.449219 321.03125 C 284.660156 321.679688 283.835938 322.289062 282.988281 322.859375 C 282.136719 323.425781 281.257812 323.953125 280.355469 324.433594 C 279.453125 324.917969 278.53125 325.355469 277.582031 325.746094 C 276.636719 326.136719 275.675781 326.480469 274.695312 326.78125 C 273.71875 327.078125 272.726562 327.324219 271.722656 327.523438 C 270.71875 327.722656 269.707031 327.875 268.6875 327.972656 C 267.667969 328.074219 266.648438 328.125 265.625 328.125 Z M 265.625 328.125 " fill-opacity="1" fill-rule="nonzero"/></svg>